<?xml version="1.0" encoding="UTF-8"?><svg id="Layer_1" xmlns="http://www.w3.org/2000/svg" viewBox="0 0 2965.42 722.77"><defs><style>.cls-1{fill:#bd8e33;}.cls-2{stroke-width:1.56px;}.cls-2,.cls-3,.cls-4,.cls-5,.cls-6{fill:none;stroke:#bc8a2c;}.cls-2,.cls-4,.cls-5,.cls-6{stroke-miterlimit:10;}.cls-3{stroke-dasharray:0 0 0 0 0 0 0 0 0 0 0 0;stroke-linecap:round;stroke-linejoin:round;stroke-width:9.24px;}.cls-4{stroke-width:.92px;}.cls-5{stroke-width:5.55px;}.cls-6{stroke-width:2.77px;}</style></defs><g><g><circle class="cls-5" cx="361.38" cy="361.38" r="346.6"/><circle class="cls-6" cx="361.38" cy="361.38" r="360"/><circle class="cls-3" cx="361.39" cy="361.39" r="331.79"/><g><path d="m139.63,204.1c-1.81-1.33-2.15-1.38-3.24.11l-4.8,6.54c-1.14,1.56-1.12,2.05-.55,3.24,3.54,7.2,6.91,13.31,8.7,16.35.66,1.06,1.07,1.55,1.44,1.83.44.32,1.02.17,2.08-.87l2.11-2.09c.94-.37,2.39.79,2.13,1.66-1.68,2.03-3.34,4.16-5.4,6.97-1.87,2.55-3,4.22-4.52,6.55-.78.29-2.26-.7-2.23-1.54l.99-1.86c1.08-1.99,1.14-3.77-.54-7.49-4.84-10.64-10.42-22.11-16.43-33.91-1.18-2.31-2.49-4.7-3.11-5.16-.5-.37-1.28-.08-1.96.58l-3.27,3.16c-.85.24-2.37-.69-2.04-1.79,2.27-2.84,4.53-5.78,8.1-10.64l11.79-16.07c2.93-3.99,5.47-7.58,5.94-8.48,1.04.67,5.85,3.52,10.25,6.27.5.75-.42,2.28-1.44,2.49-2.68-.92-5.19-1.41-6.66-1.24-2.05.32-4.17,1.64-6.41,4.69l-3.66,4.98c-1.51,2.06-1.38,2.15.92,3.84l10.9,8c1.74,1.28,1.91,1.31,3.15-.37l3.15-4.3c2.38-3.24,2.49-4.31-.04-7.12l-1.33-1.45c-.18-.8.97-2.36,1.75-2.26,1.9,1.59,4.1,3.3,6.47,5.03,2.37,1.74,4.66,3.32,6.74,4.66.33.72-.75,2.33-1.63,2.35l-1.79-.83c-3.45-1.57-4.49-1.19-6.87,2.05l-3.15,4.3c-1.23,1.68-1.22,1.79.65,3.16l7.41,5.44c2.87,2.1,5.04,3.32,6.65,3.35,1.72,0,3.08-.8,6.42-5.35,3.98-5.42,5.34-7.68.82-16.27-.32-1,1.07-2.38,2-2.08,3.06,2.63,7.01,7.82,8.05,9.93-3.42,4.39-6.77,8.83-10.75,14.25l-5.94,8.1c-1.97,2.68-4.14,5.78-7.45,10.54-.74.22-2.23-.87-2.18-1.6l1.71-3.25c1.62-3.12,1.52-3.77-4.21-7.98l-8.72-6.4v-.02Zm-6.55-2.31c1.1-1.5.94-1.8-1.18-3.36l-9.97-7.31c-1.62-1.19-2.6-1.81-3-1.92l-.23.31c.26.95.86,2.36,2.66,5.78l6.11,12.05c.61,1.12.91.86,1.64-.14l3.98-5.42h-.01Z"/><path d="m162.83,151.62c-4.98-5.91-5.64-6.46-8.42-4.73l-1.79,1.11c-.84.2-2.08-1.27-1.62-2.17,4.18-4.03,8.59-8.15,14.21-12.87,5.02-4.23,9.99-7.09,13.38-7.63,5.12-.88,9.38.59,12.57,4.37,4.43,5.26,2.77,10.49,1.2,14.14-.34.79-.04,1.15.8,1.55,10.57,4.64,16.73,7.03,21.6,7.06,2.58-.05,4.42-.99,5.35-1.68.78-.15,1.53.73,1.53,1.34-.6,1.21-2.39,2.92-4.22,4.46-5.44,4.58-10.51,5.51-16.69,3.45-4.53-1.54-8.33-3.29-12.32-5.28-2.05-1-3.4-.68-4.87.57-2.07,1.74-2.09,1.96-1.09,3.14l6.12,7.27c4.58,5.44,5.28,5.55,8.34,3.79l1.84-1.05c.66-.05,1.86,1.36,1.74,2.07-3.23,2.52-6,4.75-8.84,7.14-2.96,2.49-5.51,4.74-8.48,7.44-.77.04-1.96-1.37-1.74-2.07l1.35-1.64c2.26-2.71,2.27-3.43-2.31-8.86l-17.62-20.92h-.02Zm14.42.69c1.74,2.07,2.07,2.1,5.56-.84,2.13-1.79,2.92-3.37,3.1-5.44.16-1.85-.31-4.69-3.25-8.17-4.48-5.32-10.5-6.11-15.11-2.23-2.42,2.04-2.39,2.32,0,5.15l9.7,11.52h0Z"/><path d="m234.95,132.77c3.65,6.28,4.33,6.51,7.71,5.26l2.06-.76c.77.09,1.59,1.66,1.29,2.38-3.68,1.97-6.99,3.8-10.13,5.63-3.2,1.87-6.5,3.88-10.03,6.11-.77-.09-1.66-1.63-1.36-2.34l1.68-1.42c2.76-2.32,2.89-3.02-.77-9.3l-14.31-24.57c-3.65-6.28-4.33-6.51-7.71-5.26l-2.06.75c-.77-.09-1.66-1.63-1.36-2.34,3.68-1.96,7.06-3.84,10.27-5.71,3.14-1.83,6.44-3.84,9.97-6.07.77.09,1.66,1.63,1.36,2.34l-1.68,1.42c-2.76,2.32-2.89,3.02.77,9.3l14.31,24.57h0Z"/><path d="m259.73,113.92c-1.74.65-1.93.81-1.84,2.34l.33,9.45c.11,1.61.25,2.21.47,2.79.16.43,1.27.51,3.43.12l2.31-.45c.63.34,1.39,1.95.81,2.59-2.59.81-5.19,1.78-8.26,2.85-2.46.92-4.04,1.77-7.37,3.02-.96-.13-1.46-1.68-1.17-2.45l1.87-.95c1.65-.87,2.88-1.99,3.05-5.27.14-3.36.21-7.34.21-13.28l-.05-20.12c-.05-5.18.23-8.18-.77-10.19,3.17-2.1,4.52-6.65,4.66-6.7.94-.35,1.51-.15,2.21.82,1.37,1.88,3.24,4.23,6.98,8.69l20.49,24.66c3.15,3.77,4.42,5.19,7.26,4.62l2.91-.6c.57.2,1.37,1.88.88,2.56-3.53,1.16-7.46,2.55-11.22,3.97-3.62,1.36-6.41,2.49-9.68,3.88-.96-.14-1.67-1.6-1.1-2.48l2.18-1.23c1.56-.91,1.65-1.53,1.49-1.96-.19-.51-1.35-2.05-3.22-4.4l-4.29-5.49c-.8-1.02-1.43-.95-3.96,0l-8.61,3.23v-.02Zm6.81-6.93c1.66-.63,1.94-.98.66-2.64l-4.08-5.15c-2.18-2.73-4.95-6.15-6.17-7.42.05,1.88.07,6.33.23,10.07l.23,6.1c.08,2.2.53,2.28,2.33,1.6l6.8-2.55h0Z"/><path d="m378.83,92.88c-4.33,9.18-6.59,15.19-8.55,19.44-.63.36-1.57.55-2.73.5-.93-.04-1.61-.3-2.06-.7-.76-2.12-1.9-6.27-2.87-8.94l-11.19-31.94c-2.62-7.53-3-7.7-5.45-8.43l-3.06-.9c-.58-.88-.29-2.25.42-2.62,3.93.24,6.48.5,10.49.67,3.55.15,6.87.21,11.59.26.6.49.46,1.95-.03,2.63l-2.34.37c-1.4.25-1.96.69-1.99,1.39-.03.62,1.07,3.91,2.73,8.62l6.07,17.65,2.28,6.59c.67-1.29,2.02-3.86,3.04-6.14l3.24-7.13c2.13-4.78,5.82-13.29,6.85-15.88.6-1.44.87-2.28.89-2.75.02-.54-.58-.87-2.42-1.42l-2.45-.64c-.59-.64-.52-2.26.42-2.62,3.62.31,6.55.51,9.49.63,2.62.11,4.94.13,7.19.07.6.33.6,2.19.04,2.63l-2.02.3c-2.18.3-3.51.78-4.58,2.36-1.81,2.48-3.92,6.72-6.8,12.86l-6.2,13.12v.02Z"/><path d="m455.85,100.96c-4.14,16.33-17.56,23.37-33.66,19.29-15.05-3.81-23.48-16.47-19.52-32.12,3.76-14.83,17.74-23.48,33.4-19.51,15.58,3.95,23.63,17.15,19.78,32.35h0Zm-21.25-29.07c-9.21-2.33-16.34,5.03-19.51,17.53-2.32,9.14-2.81,24.63,9.39,27.72,9.81,2.49,16.06-6.13,19.13-18.26,3.25-12.81.27-24.64-9.02-26.99h0Z"/><path d="m480.79,129.16c-3.14,6.46-2.99,7.22-.07,9.16l2.61,1.7c.28.65-.49,2.25-1.18,2.43-4.45-2.33-7.82-4.06-11.16-5.68s-6.85-3.24-11.01-5.09c-.35-.69.42-2.29,1.18-2.43l2.53.8c3.36,1.03,4.02.75,7.16-5.72l1.69-3.48c1.69-3.47,2.16-4.62,2.14-9.18l.03-21.11c0-3.52-.09-4.94-2.32-6.54l-2.16-1.56c-.36-.86.52-2.49,1.46-2.3,3.06,1.66,5.6,2.98,9.7,4.97,4.24,2.06,7.82,3.71,10.25,4.72.49.58-.15,2.25-1.04,2.5l-2.63-.59c-1.39-.33-1.94-.25-1.97-.19-.27.56-.43,1.77-.56,5.74l-.35,9.02c-.07,2.8-.02,6.77-.03,8.92,3.67-2.43,8.02-5.9,11.55-8.57,4.9-3.72,6.75-5.4,7.15-6.23.2-.42-.71-1.37-2.24-2.46l-1.19-.92c-.39-.62.39-2.39,1.25-2.4,2.71,1.49,5.18,2.77,7.68,3.99,2.64,1.28,4.83,2.26,6.91,3.1.7.68-.11,2.35-.9,2.57l-1.98-.53c-1.35-.4-3.19-.69-4.42-.09-1.68.81-4.57,2.51-10.84,6.93l-8.23,5.8c-3.39,2.39-4.72,3.89-6.65,7.85l-2.36,4.87h0Z"/><path d="m514.96,142.39c-1.48-1.11-1.72-1.19-2.97-.29l-7.79,5.36c-1.3.96-1.73,1.41-2.1,1.9-.28.37.25,1.34,1.75,2.95l1.62,1.7c.05.71-.9,2.22-1.75,2.07-2.07-1.75-4.3-3.41-6.85-5.42-2.1-1.58-3.66-2.46-6.51-4.59-.4-.88.63-2.13,1.44-2.3l1.81,1.07c1.62.93,3.23,1.36,6.09-.26,2.91-1.68,6.3-3.77,11.31-6.97l16.93-10.87c4.34-2.83,7.01-4.2,8.17-6.14,3.48,1.55,8.04.23,8.16.32.8.6.94,1.19.49,2.3-.85,2.16-1.82,5.01-3.57,10.55l-9.76,30.54c-1.48,4.68-1.99,6.52.02,8.61l2.07,2.13c.14.59-.85,2.16-1.68,2.12-2.87-2.35-6.17-4.91-9.38-7.32-3.09-2.32-5.55-4.06-8.48-6.07-.4-.88.45-2.27,1.5-2.26l2.21,1.17c1.61.82,2.18.57,2.46.2.32-.43,1-2.24,1.98-5.08l2.32-6.57c.43-1.22.03-1.71-2.13-3.34l-7.36-5.52h0Zm9.5,2.02c1.42,1.07,1.87,1.11,2.58-.87l2.15-6.21c1.13-3.31,2.52-7.48,2.94-9.19-1.56,1.05-5.3,3.46-8.36,5.61l-5.02,3.48c-1.81,1.25-1.64,1.67-.09,2.83l5.81,4.36h-.01Z"/><path d="m571.42,208.8c-2.45,2.13-3.51,3.26-2.78,4.57-.03.44-1.07,1.24-1.55,1.04-1.04-.84-2.53-2.2-4.43-3.32-2.42-1.48-7.54-5.83-10.38-9.09-3.45-3.96-5.99-7.7-7.96-13.25-3.2-9.2-.8-19.5,7.59-26.81,7.28-6.34,16.53-8.67,26.53-5.08,5.61,2.08,10.65,5.99,14.96,10.94,5.63,6.47,7.03,10.89,8.65,12.75-1.59,1.7-5.62,5.31-8.67,8.99-.84.33-2.27-1.2-2.05-2.11,3.85-6.64,3.39-12.69-1.33-18.11-8.07-9.26-19.67-7.05-28.87.97-8.33,7.26-10.79,14.43-10.06,20.45.57,4.42,2.86,7.75,4.74,9.91,2.89,3.32,4.14,3.46,7.93.16l3.67-3.2c3.14-2.74,3.19-3.39,1.16-6.55l-1.88-2.87c-.21-.95,1.13-2.11,2.04-1.77,3.49,4.24,5.92,7.14,8.4,10,2.44,2.8,4.98,5.6,6.82,7.48.06.77-1.28,1.94-2.04,1.78l-1.4-1.14c-1.81-1.49-2.7-1.34-5.85,1.41l-3.26,2.84h.02Z"/><path d="m606.03,223.52c-1.9,1.04-1.99,1.19-.99,3.01l2.57,4.67c1.94,3.52,2.86,4.07,6.48,2.96l1.88-.59c.8.18,1.73,1.87,1.31,2.54-2.24,1.06-4.71,2.33-7.29,3.75-2.57,1.42-4.97,2.82-7.06,4.15-.79,0-1.79-1.66-1.45-2.47l1.51-1.27c2.88-2.47,2.97-3.58,1.03-7.1l-2.57-4.67c-1.01-1.83-1.11-1.86-3.14-.74l-8.05,4.43c-3.11,1.71-5.13,3.18-5.83,4.62-.73,1.55-.57,3.13,2.15,8.08,3.24,5.89,4.71,8.08,14.41,7.59,1.04.13,1.7,1.97,1.04,2.69-3.67,1.67-10.04,3.06-12.39,3.12-1.84-3.66-5.35-10.2-8.4-15.75l-4.84-8.8c-1.79-3.25-3.68-6.53-6.61-11.53.11-.76,1.73-1.66,2.37-1.3l2.22,2.92c2.15,2.78,2.78,2.97,9.01-.46l25.25-13.9c6.16-3.39,6.34-4.02,5.27-7.4l-.59-1.88c.07-.83,1.66-1.62,2.44-1.17,1.62,3.26,3.37,6.61,5.16,9.86l7.9,14.35c2.38,4.33,4.58,8.15,5.2,8.96-1.05.66-5.66,3.82-10.01,6.65-.89.14-1.89-1.34-1.65-2.35,1.96-2.05,3.47-4.11,3.93-5.52.58-1.99.27-4.47-1.55-7.79l-2.98-5.41c-1.23-2.23-1.36-2.16-3.87-.78l-11.84,6.52h-.02Z"/><path d="m596.75,281.05c-2.24-6.75-1.72-11.56-1.35-13.39,1.15-1.93,6.12-4.63,11.1-6.29,1.12.2,1.76,1.86,1.14,2.71-4.28,3.05-9.4,10.2-7.33,16.43,1.8,5.43,6.37,6.68,10.03,5.46,5.94-1.97,7.61-8.71,8.35-13.84.89-6.16,3.37-13.41,10.63-15.82,8.26-2.82,16.12,1.74,19.65,12.37.8,2.42,1.51,5.52,1.6,8.75.02,1.05.09,1.76.24,2.69-1.42,1.12-5.14,3.17-10.05,4.8-1-.07-1.68-1.88-1.17-2.79,3.33-2.49,7.63-7.42,5.88-12.7-1.61-4.84-5.63-6.43-9.3-5.22-3.37,1.12-5.46,5.15-6.15,9.45l-.96,5.69c-.91,5.35-3.24,12.55-11.31,15.23-9.02,2.99-17.34-2.47-21.02-13.54h.02Z"/></g><circle class="cls-2" cx="361.38" cy="361.38" r="202.72"/><circle class="cls-4" cx="361.38" cy="361.38" r="147.38"/><circle class="cls-4" cx="361.39" cy="361.39" r="138.14"/><g><path d="m158.73,565.15c-1.37-1.28-1.6-1.39-2.96-.62l-8.44,4.53c-1.41.82-1.9,1.22-2.33,1.68-.32.34.1,1.38,1.43,3.16l1.45,1.89c-.03.72-1.15,2.14-1.99,1.89-1.89-1.99-3.95-3.91-6.29-6.21-1.94-1.82-3.42-2.88-6.04-5.34-.31-.93.87-2.07,1.7-2.16l1.7,1.27c1.53,1.11,3.1,1.73,6.16.41,3.11-1.37,6.77-3.1,12.16-5.76l18.26-9.06c4.69-2.36,7.53-3.45,8.91-5.27,3.33,1.94,8.07,1.12,8.18,1.23.74.7.82,1.3.24,2.37-1.1,2.08-2.39,4.84-4.76,10.22l-13.22,29.64c-2.01,4.55-2.73,6.34-.94,8.66l1.85,2.38c.08.61-1.1,2.08-1.93,1.94-2.63-2.68-5.67-5.63-8.64-8.41-2.86-2.67-5.14-4.7-7.87-7.05-.31-.93.7-2.23,1.76-2.1l2.1,1.43c1.53,1,2.13.82,2.45.47.37-.4,1.26-2.14,2.55-4.9l3.06-6.35c.57-1.18.22-1.72-1.78-3.59l-6.8-6.36h.03Zm9.35,3.08c1.31,1.23,1.76,1.33,2.7-.59l2.85-6.01c1.5-3.2,3.36-7.25,3.98-8.93-1.69.88-5.72,2.9-9.04,4.72l-5.44,2.94c-1.96,1.06-1.83,1.5-.41,2.84l5.37,5.03h0Z"/><path d="m249.03,590.41c-.73,1.2-3.79,6.67-5.56,10.91-.76.64-2.72-.19-2.82-1.08,1.99-7.31-.25-13.26-6.73-17.21-7.41-4.52-19.23-3.03-27.35,10.26-8.11,13.29-4.79,25.12,3.22,30.01,8.08,4.93,15.37,1.4,19.94-2.04.86-.21,2.34.97,2.25,2.02-3.48,4.66-7.07,7.97-8.94,8.94-4.22-1.2-9.86-2.62-15.07-5.8-6.55-3.99-12.29-9.61-14.87-16.04-2.57-6.61-2.86-14.39,2.2-22.67,4.97-8.15,11.95-11.77,18.88-12.77,7.15-1.05,15.18,1.11,22.13,5.34,6.81,4.16,10.78,8.77,12.7,10.13h.02Z"/><path d="m258.83,629.81c-1.77-.62-2.02-.62-2.95.62l-5.87,7.56c-.96,1.32-1.24,1.89-1.45,2.48-.15.44.65,1.22,2.59,2.32l2.09,1.15c.26.67-.18,2.42-1.05,2.53-2.53-1.05-5.19-1.98-8.27-3.14-2.51-.88-4.29-1.25-7.68-2.44-.66-.73-.04-2.25.68-2.66l2.07.48c1.85.4,3.53.33,5.79-2.12,2.29-2.52,4.93-5.57,8.78-10.19l13.01-15.67c3.32-4.06,5.48-6.21,6.01-8.43,3.83.43,7.82-2.23,7.97-2.18.96.34,1.27.86,1.18,2.07-.16,2.35-.22,5.39-.21,11.28l-.06,32.48c0,4.98.08,6.91,2.65,8.31l2.65,1.43c.31.52-.16,2.35-.98,2.56-3.49-1.39-7.45-2.86-11.3-4.2-3.69-1.29-6.6-2.23-10.05-3.27-.66-.73-.26-2.33.75-2.64l2.49.46c1.8.3,2.28-.11,2.43-.56.18-.52.28-2.47.35-5.51l.22-7.05c.04-1.31-.5-1.67-3.08-2.57l-8.79-3.08.03-.02Zm9.78-.97c1.7.59,2.15.5,2.22-1.63l.17-6.66c.07-3.54.14-7.99.01-9.78-1.18,1.49-4.05,4.96-6.35,7.97l-3.78,4.89c-1.36,1.76-1.07,2.11.78,2.76l6.94,2.43v.02Z"/><path d="m310.45,623.4c.81-7.39.82-8.88-2.72-9.66l-1.46-.32c-.73-.47-.49-2.73.45-2.71,6.58.33,12.68.68,20.92,1.59,6.38.7,12.69,2.02,17.84,4.55,9.79,4.77,14.38,14.56,13.32,24.28-1.14,10.42-7.04,18.28-16.47,21.73-5.58,2.06-12.07,2.38-20.08,1.5-3.66-.4-7.49-1.29-10.29-1.6-3.73-.41-7.71-.77-12.16-1.1-.57-.53-.37-2.4.3-2.72l2.45-.12c3.56-.16,4.09-.73,4.88-7.89l3.01-27.53h0Zm8.42,25.87c-.47,4.28-.62,7.09.6,8.88,1.23,1.71,3.41,2.66,6.21,2.96,13.46,1.47,19.36-10,20.51-20.58,1.53-14-4.95-23.13-19.02-24.68-2.1-.23-3.62,0-4.16.57-.53.57-.77,2.04-1.04,4.45l-3.11,28.39h0Z"/><path d="m389.21,633.6c.25,2.18.34,2.32,2.44,2.08l5.36-.62c4.04-.46,4.91-1.12,5.27-4.94l.17-1.99c.47-.68,2.42-.91,2.88-.25.13,2.51.37,5.31.7,8.27.34,2.96.73,5.74,1.17,8.22-.31.74-2.24,1.05-2.87.41l-.61-1.9c-1.2-3.64-2.2-4.16-6.25-3.69l-5.36.62c-2.1.24-2.17.33-1.9,2.66l1.05,9.25c.41,3.58,1,6.03,2.08,7.24,1.17,1.28,2.72,1.73,8.39,1.08,6.76-.78,9.38-1.31,12.65-10.59.52-.93,2.5-.84,2.92.06.15,4.08-1,10.59-1.85,12.81-4.14.32-11.61,1.1-17.98,1.83l-10.1,1.16c-3.73.43-7.53.95-13.34,1.77-.67-.39-.89-2.26-.31-2.72l3.59-.96c3.44-.95,3.85-1.47,3.04-8.62l-3.3-29c-.8-7.07-1.32-7.49-4.9-7.79l-1.99-.16c-.75-.39-.88-2.18-.15-2.74,3.67-.27,7.49-.63,11.22-1.05l16.48-1.89c4.97-.57,9.4-1.16,10.39-1.43.22,1.23,1.4,6.77,2.38,11.93-.21.89-1.98,1.25-2.84.64-1.16-2.62-2.52-4.83-3.65-5.8-1.64-1.31-4.08-1.97-7.89-1.53l-6.22.71c-2.56.3-2.55.45-2.22,3.33l1.55,13.6h0Zm8.36-36.56c1.14-1.07,1.87-1.55,2.41-1.62.78-.09,1.78.43,2.92,2.11,1.12,1.53,1.25,2.69,1.16,3.25-.08.64-.76,1.59-2.27,2.23l-14.67,6.73c-.65-.16-1.21-.96-1.07-1.84l11.52-10.86h0Z"/><path d="m418.66,612.78c-.8-.37-1.45-2.14-.72-2.65,2.55-.77,5.74-1.85,9.34-3.17,2.42-.89,4.56-1.67,7.12-2.86,1.67,4.55,5.89,8.09,11.65,13.82l8.65,8.58c1.2,1.23,5.54,4.89,7.25,6.35.31-2.11.65-4.82,1.04-9.88l.78-9.45c.75-8.85,1.16-13.42.46-20.32,3.49-.94,5.15-1.63,7.36-2.44,2.42-.89,5.78-2.2,8.37-3.31.97.15,1.48,1.54,1.16,2.49l-2,1.15c-2.82,1.62-3.97,3.04-2.54,6.93,5.55,15.13,8.61,23.01,12.45,32.1,1.39,3.33,2.33,4.98,5.33,4.3l2.46-.57c.8.37,1.42,2.06.8,2.62-3.43,1.09-6.62,2.17-10.22,3.49-3.31,1.21-7.32,2.76-10.79,4.2-1.02-.05-1.71-1.71-1.16-2.49l2.1-1.1c3.22-1.68,2.89-2.56,1.25-7.04l-7.16-19.04-3.07-8.37-.15.05c-1.12,13.74-2.5,28.16-2.79,42.35-.26.43-.69.84-1.28,1.05-.66.24-1.52.39-2.07.26-6.21-8.06-21.93-22.97-29.55-31.01l-.15.05c1.46,4.88,2.57,8.14,3.9,11.99,1.68,4.8,4.3,12.17,5.92,16.58,1.35,3.67,2.17,4.54,5.27,3.91l3.03-.61c.78.3,1.25,2.04.8,2.62-2.77.85-5.96,1.93-8.75,2.95-2.35.86-5.12,1.96-8,3.18-1.06.06-1.76-1.85-1.24-2.46l1.24-.7c3.51-2.03,3.78-2.63,2.55-7.35-.95-3.73-3.08-10.2-5.2-17.34-1.51-5.03-3.55-11.03-5-15-1.54-4.19-3.56-4.7-6.69-4.14l-1.72.3-.03-.02Z"/><path d="m521.84,607.24c3.9,6.23,4.59,6.45,7.97,5.07l2.06-.83c.78.06,1.67,1.63,1.39,2.36-3.67,2.11-6.96,4.07-10.07,6.02-3.18,1.99-6.46,4.13-9.96,6.5-.78-.07-1.73-1.59-1.45-2.32l1.65-1.49c2.72-2.44,2.83-3.15-1.08-9.39l-15.28-24.41c-3.9-6.23-4.59-6.45-7.97-5.07l-2.07.83c-.78-.07-1.74-1.59-1.45-2.32,3.67-2.11,7.02-4.12,10.21-6.11,3.12-1.95,6.39-4.09,9.89-6.46.78.07,1.73,1.59,1.45,2.32l-1.65,1.49c-2.72,2.44-2.83,3.15,1.08,9.39l15.28,24.41h0Z"/><path d="m539.99,568.73c1.45,1.64,1.61,1.71,3.19.31l4.05-3.57c3.05-2.69,3.39-3.72,1.5-7.06l-1-1.73c0-.83,1.46-2.13,2.22-1.86,1.54,1.98,3.34,4.15,5.31,6.38s3.89,4.29,5.66,6.07c.17.79-1.24,2.14-2.12,1.97l-1.59-1.21c-3.07-2.3-4.19-2.15-7.24.54l-4.05,3.57c-1.58,1.4-1.59,1.51-.04,3.27l6.16,6.99c2.38,2.7,4.27,4.37,5.85,4.75,1.69.38,3.22-.13,7.51-3.91,5.1-4.5,6.94-6.44,4.32-15.92-.1-1.06,1.57-2.12,2.43-1.62,2.46,3.26,5.24,9.26,5.81,11.57-3.21,2.63-8.9,7.54-13.71,11.78l-7.63,6.73c-2.82,2.48-5.64,5.08-9.93,9.08-.78.06-2.02-1.35-1.81-2.05l2.4-2.84c2.28-2.74,2.32-3.4-2.44-8.8l-19.29-21.9c-4.71-5.34-5.37-5.38-8.47-3.58l-1.72,1c-.84.11-1.97-1.29-1.69-2.16,2.86-2.32,5.79-4.79,8.6-7.28l12.44-10.98c3.75-3.31,7.05-6.32,7.71-7.11.89.89,5.02,4.75,8.78,8.43.33.85-.91,2.16-1.96,2.15-2.46-1.49-4.83-2.52-6.32-2.67-2.1-.13-4.48.72-7.35,3.25l-4.69,4.14c-1.94,1.71-1.83,1.83.08,4l9.05,10.27h-.02Z"/></g></g><g><polygon class="cls-1" points="383.63 337.2 440.87 277.99 379.86 318.03 382.31 337.04 383.63 337.2"/><polygon class="cls-1" points="335.6 337.04 335.75 335.84 281.55 283.52 317.02 339.46 335.6 337.04"/><path class="cls-1" d="m564.09,360.17l-.71-.09-.93-.12h0l-12.34-1.57-2.63-.33-38.21-4.86-34.88-4.44-2.69-.34-6.29-.8-2.69-.34-60.39-7.69,32.69-49.79,1.48-2.25,3.45-5.26,1.46-2.23,1.12-1.7-.32.32-1.58-1.58-1.38.91-2.25,1.48-5.27,3.46-2.28,1.5-49.73,32.64-7.49-57.92-.34-2.66-.8-6.21-.34-2.66-9.42-72.9-.34-2.62-1.58-12.25v-.03h0l-.12-.95-.64.03-1.71,13.25-.34,2.64-9.5,73.44-.35,2.69-.81,6.28-.35,2.73-7.45,57.56-47.27-29.96-2.29-1.45-5.31-3.36-1.13-.71-.97.9-3.39-3.68,2.08,3.28,1.45,2.28,3.38,5.33,1.46,2.31,29.92,47.18-55.08,7.17-2.7.35-6.28.82-2.69.35-73.15,9.53-2.63.34-13.27,1.73-.67.95.67.09,11.91,1.55,1.36.18,2.63.34,73.15,9.53,2.69.35,6.28.82,2.7.35,54.82,7.14-30.17,46.59-1.49,2.3-3.44,5.31-1.47,2.27-3.42,5.28.62.64,5.22-3.38,2.26-1.46,5.28-3.42,2.27-1.47,13.91-9.01,32.76-21.21,7.29,57.22.35,2.73.8,6.29.34,2.69,9.35,73.45.34,2.64,1.69,13.28,1.12,1.98.25-1.96,1.68-13.23.33-2.62,9.28-72.92.34-2.66.79-6.2.34-2.67,7.36-57.81,49.57,32.65,2.28,1.5,5.27,3.47,2.25,1.48,1.89,1.25-.63-.58.51-.55-61.02-40.18,2.43-19.09,1.31-.17,57.36,59.34,1.18-1.28.08.07-.72-1.1-1.3-1.97-.17-.27-3.46-5.25-1.48-2.25-32.73-49.69,60.33-7.68,2.69-.34,6.29-.8,2.69-.34,73.09-9.3,2.63-.34,13.27-1.69.72-.09c0-.14,0-.28-.01-.45l-.02-.05Zm-9.26-.3l-192.56-2.15.02-.02h0l19.8-19.81,172.74,21.98h0Zm-153.45-20.41l-16.66-2.12,56.28-58.23-39.62,60.35Zm39.49-61.47l-57.24,59.21-1.31-.17-2.46-19.01,61.01-40.04h0Zm-59.4,59.3l-19.82,19.83-2.15-189.79,21.97,169.96Zm-22.86-171.21l2.17,191.15-24.32-19.97,22.14-171.18h.01Zm-20.6,152.37l-2.11,16.32-53.27-51.42,55.38,35.1h0Zm-56.45-34.92l54.2,52.32-.16,1.21-18.57,2.42-35.47-55.94h0Zm54.31,54.36l24.15,19.84-192.98,2.15,168.83-21.99Zm-169.99,22.88l194.28-2.16-24.31,24.3-169.97-22.14h0Zm150.89,20.54l18.84,2.45.16,1.23-57.19,55.29,38.2-58.97h-.01Zm-37.09,59.12l56.23-54.36,2.11,16.58-58.34,37.78h0Zm78.93,117.03l-22.15-173.92,24.32-24.3-2.17,198.23h0Zm.89-1.19l2.15-196.91,19.82,24.14-21.98,172.77h.01Zm82.07-114.02l-56.84-58.79,16.7-2.13,40.13,60.92h0Zm-59.45-59.35l-19.95-24.3,193.92,2.16-173.96,22.14h0Z"/><polygon class="cls-1" points="441.56 442.25 384.72 383.46 401.42 381.33 441.56 442.25"/><polygon class="cls-1" points="338 402.65 279.66 440.42 335.89 386.07 338 402.65"/><polygon class="cls-1" points="360.78 357.22 358.6 166.07 336.46 337.25 360.78 357.22"/><polygon class="cls-1" points="359.49 556.28 381.46 383.5 361.64 359.36 359.49 556.28"/><polygon class="cls-1" points="362.28 357.7 362.29 357.7 362.27 357.73 554.83 359.88 382.08 337.89 362.28 357.7"/><polygon class="cls-1" points="360.15 358.6 165.87 360.77 335.84 382.91 360.15 358.6"/></g><path class="cls-1" d="m592.78,359.88c31.89-2.07,33.56-3.74,35.63-35.63,2.07,31.89,3.74,33.56,35.63,35.63-31.89,2.07-33.56,3.74-35.63,35.63-2.07-31.89-3.74-33.56-35.63-35.63Z"/><path class="cls-1" d="m58.72,359.88c31.89-2.07,33.56-3.74,35.63-35.63,2.07,31.89,3.74,33.56,35.63,35.63-31.89,2.07-33.56,3.74-35.63,35.63-2.07-31.89-3.74-33.56-35.63-35.63Z"/><circle class="cls-1" cx="144.71" cy="544.05" r="6.97"/><circle class="cls-1" cx="575.74" cy="546.4" r="6.97"/><g><path d="m348.44,528.11v-103.35h-104.52l-53.56,103.35h-11.95l170.92-333.47h177.35v9.32h-126.85v136.32h113.88v9.32h-113.88v169.2h139.25v9.32h-190.65,0Zm0-112.69v-192.11l-99.87,192.11h99.87Z"/><path d="m524.38,196.95v4.7h-126.85v140.94h113.88v4.7h-113.88v173.83h139.25v4.7h-186.03v-103.35h-108.23l-53.56,103.35h-6.76l168.55-328.85h173.63m-279.61,220.79h105.98v-203.88l-105.98,203.88m284.23-225.41h-181.08l-1.29,2.51-168.55,328.85-3.45,6.73h17.14l1.29-2.5,52.27-100.86h100.8v103.35h195.27v-13.94h-139.25v-164.58h113.88v-13.94h-113.88v-131.69h126.85v-13.94h0Zm-276.62,220.8l93.75-180.35v180.35h-93.75Z"/></g><g><path d="m307.48,544.96c0,.57.02.61.57.61h1.4c1.05,0,1.3-.14,1.5-1.11l.1-.51c.14-.16.65-.16.75.02-.04.65-.06,1.38-.06,2.14s.02,1.5.06,2.15c-.1.18-.61.2-.75.02l-.1-.51c-.2-.97-.44-1.13-1.5-1.13h-1.4c-.55,0-.57.02-.57.63v2.41c0,.93.08,1.58.32,1.92.26.36.65.53,2.13.53,1.76,0,2.45-.06,3.56-2.35.16-.22.67-.14.75.1-.08,1.05-.57,2.69-.85,3.24-1.07-.04-3.02-.06-4.67-.06h-2.63c-.97,0-1.96.02-3.48.06-.16-.12-.16-.61,0-.71l.95-.14c.91-.14,1.03-.26,1.03-2.13v-7.55c0-1.84-.12-1.96-1.03-2.15l-.51-.1c-.18-.12-.16-.59.04-.71.95.04,1.94.06,2.91.06h4.29c1.3,0,2.45-.02,2.71-.06.02.32.16,1.78.26,3.14-.08.22-.55.26-.75.08-.22-.71-.51-1.32-.77-1.6-.38-.38-.99-.63-1.98-.63h-1.62c-.67,0-.67.04-.67.79v3.54h.01Z"/><path d="m321.06,553.37c-1.86,0-3.02-.53-3.44-.77-.38-.45-.65-1.9-.65-3.28.14-.26.61-.28.77-.06.4,1.32,1.76,3.18,3.48,3.18,1.5,0,2.19-1.03,2.19-2.04,0-1.64-1.54-2.61-2.75-3.22-1.46-.73-3.06-1.94-3.06-3.95-.02-2.29,1.76-3.86,4.69-3.86.67,0,1.5.08,2.31.32.26.08.45.12.69.16.16.44.36,1.54.36,2.89-.1.24-.61.26-.79.06-.34-1.03-1.21-2.51-2.67-2.51-1.34,0-2.06.87-2.06,1.88,0,.93.83,1.78,1.84,2.31l1.34.71c1.26.67,2.85,1.84,2.85,4.07,0,2.49-2.04,4.11-5.1,4.11h0Z"/><path d="m334.13,541.21c0-.49,0-.59-.49-.59h-1.25c-1.48,0-1.9.81-2.51,2.29-.24.12-.63.08-.75-.18.42-1.4.53-2.65.67-3.44.08-.06.18-.1.28-.1s.2.02.28.08c.1.34.16.43,1.7.43h7.53c1.34,0,1.64-.02,1.82-.45.08-.04.14-.06.26-.06s.26.08.3.14c-.2.69-.34,2.33-.3,3.48-.1.18-.65.22-.75.06-.34-1.3-.63-2.25-2.15-2.25h-1.21c-.49,0-.55.06-.55.59v8.92c0,1.88.12,2.04,1.03,2.17l.81.1c.14.12.14.59,0,.71-1.32-.04-2.33-.06-3.24-.06-.97,0-2.02.02-3.44.06-.16-.12-.16-.59,0-.71l.91-.1c.91-.1,1.03-.28,1.03-2.17v-8.92h.02Z"/><path d="m342.8,551.69c0-.95.73-1.68,1.64-1.68.97,0,1.64.81,1.64,1.68,0,.93-.67,1.64-1.64,1.64-.81,0-1.64-.65-1.64-1.64Z"/><path d="m377.46,550.97c1.48,0,1.72-.04,2.31-1.11.14-.14.61-.14.69.12-.18,1.25-.65,2.65-.99,3.14-.81-.04-1.54-.06-2.83-.06h-3.22c-1.05,0-1.92.02-2.27.06-.18-.04-.24-.26-.2-.44.77-.71,1.92-1.78,3.14-3.12,1.4-1.54,2.65-3.24,2.65-5.4,0-1.4-.85-2.47-2.21-2.47-1.15,0-1.96.75-2.61,1.86-.24.16-.63.04-.67-.28.83-2.04,2.69-3.16,4.65-3.16,2.37,0,3.82,1.54,3.82,3.44,0,1.58-.63,2.71-3.06,5l-.97.91c-.89.83-1.07,1.11-1.07,1.27,0,.12.1.24.38.24h2.46Z"/><path d="m393.22,546.72c0,3.26-1.4,6.62-4.67,6.62s-4.67-3.36-4.67-6.62,1.4-6.62,4.67-6.62,4.67,3.48,4.67,6.62Zm-4.67,5.69c1.54,0,1.72-3.88,1.72-5.69s-.18-5.69-1.72-5.69-1.72,3.89-1.72,5.69.18,5.69,1.72,5.69Z"/><path d="m402.95,550.97c1.48,0,1.72-.04,2.31-1.11.14-.14.61-.14.69.12-.18,1.25-.65,2.65-.99,3.14-.81-.04-1.54-.06-2.83-.06h-3.22c-1.05,0-1.92.02-2.27.06-.18-.04-.24-.26-.2-.44.77-.71,1.92-1.78,3.14-3.12,1.4-1.54,2.65-3.24,2.65-5.4,0-1.4-.85-2.47-2.21-2.47-1.15,0-1.96.75-2.61,1.86-.24.16-.63.04-.67-.28.83-2.04,2.69-3.16,4.65-3.16,2.37,0,3.82,1.54,3.82,3.44,0,1.58-.63,2.71-3.06,5l-.97.91c-.89.83-1.07,1.11-1.07,1.27,0,.12.1.24.38.24h2.46Z"/><path d="m412.02,541.8c1.56-1.5,4.01-2.65,6.44-2.77.22.12.26.46.06.71-2.47.61-3.54,1.44-4.67,2.83-1.07,1.34-1.52,3.28-1.52,5.16,0,2.15.71,4.67,2.23,4.67,1.21,0,1.54-1.33,1.54-2.29,0-1.38-.57-3.85-2.31-3.85-.14-.02-.28,0-.47.02-.12-.08-.16-.22-.14-.36.36-.43,1.32-.89,2.02-.89,2.51,0,3.64,1.88,3.64,3.83,0,2.65-1.82,4.47-4.63,4.47-3.08,0-4.84-2.25-4.84-5.42,0-2.29,1.03-4.55,2.65-6.11h0Z"/></g></g><g><path d="m892.68,206.5c0-8.11-.56-9.23-7.27-9.23h-29.35c-6.99,0-8.39,1.12-10.62,5.31-13.42,25.72-24.04,48.65-29.08,60.39-1.68,4.19-2.24,6.43-2.24,8.11,0,1.96,1.68,3.35,6.99,4.19l10.62,1.68c3.08,1.96,2.8,8.67-.28,9.79-9.51-.56-19.29-.84-31.87-.84-11.46,0-18.73.28-28.8.84-2.52-1.68-2.8-8.11-.28-9.79l7.55-1.12c8.11-1.12,13.42-4.75,20.69-17.61,20.69-36.9,42.22-77.72,63.74-120.5,4.19-8.39,8.39-17.33,8.39-20.13,0-2.24-2.52-3.91-5.87-4.47l-16.22-2.8c-2.52-1.96-3.08-8.39.84-9.79,13.14.56,26.56.84,48.37.84h72.13c17.89,0,33.83-.28,37.46-.84.28,4.47,2.24,24.6,3.63,43.33-1.12,3.08-7.55,3.63-10.34,1.12-3.08-9.78-6.99-18.17-10.62-22.09-5.31-5.31-13.7-8.67-27.4-8.67h-22.37c-9.23,0-9.23.56-9.23,10.9v48.92c0,7.83.28,8.39,7.83,8.39h19.29c14.54,0,17.89-1.96,20.69-15.38l1.4-6.99c1.96-2.24,8.95-2.24,10.34.28-.56,8.95-.84,19.01-.84,29.63s.28,20.69.84,29.63c-1.4,2.52-8.39,2.8-10.34.28l-1.4-6.99c-2.8-13.42-6.15-15.66-20.69-15.66h-19.29c-7.55,0-7.83.28-7.83,8.67v33.27c0,12.86,1.12,21.81,4.47,26.56,3.63,5.03,8.95,7.27,29.35,7.27,24.32,0,33.83-.84,49.2-32.43,2.24-3.08,9.23-1.96,10.34,1.4-1.12,14.54-7.83,37.18-11.74,44.73-20.13-.56-40.26-.84-64.58-.84h-36.34c-12.02,0-25.72.28-46.69.84-2.24-1.68-2.24-8.39,0-9.79l13.14-1.96c12.58-1.96,14.26-3.63,14.26-29.35v-39.14Zm-7.27-24.04c6.71,0,7.27-1.12,7.27-10.62v-44.73c0-7.27-.28-11.46-.84-12.86h-1.4c-2.24,2.8-5.03,7.55-11.18,20.13l-22.09,43.61c-1.96,4.19-.56,4.47,3.91,4.47h24.32Z"/><path d="m1076.64,146.67c0-27.96-.56-31.03-12.3-32.71l-7.55-1.12c-2.8-1.4-2.8-8.39.56-9.79,20.97-1.4,42.77-2.52,69.33-2.52,23.76,0,44.17,3.63,54.8,10.06,16.22,9.51,24.6,23.48,24.6,41.38,0,24.88-16.77,35.51-29.63,41.94-2.8,1.4-2.8,3.08-1.4,6.15,18.45,37.46,29.91,58.43,43.33,69.89,7.27,5.87,14.54,7.55,18.73,7.83,2.52,1.4,2.52,5.59,1.12,7.27-4.47,1.96-13.42,2.52-22.09,2.52-25.72,0-41.94-9.23-54.24-29.35-8.95-14.82-15.38-28.52-21.81-43.33-3.35-7.55-7.83-9.79-14.82-9.79-9.79,0-10.34.56-10.34,6.15v34.39c0,25.72,1.68,27.68,14.26,29.91l7.55,1.4c1.96,1.4,1.96,8.11,0,9.79-14.82-.56-27.68-.84-41.1-.84s-26.28.28-40.82.84c-2.24-1.68-2.24-8.39,0-9.79l7.55-1.4c12.58-2.24,14.26-4.19,14.26-29.91v-98.97Zm38.3,35.51c0,9.79.84,10.62,17.33,10.62,10.06,0,15.94-2.52,21.25-7.83,4.75-4.75,10.06-13.7,10.06-30.19,0-25.16-14.82-41.38-36.62-41.38-11.46,0-12.02.84-12.02,14.26v54.52Z"/><path d="m1321.82,245.08c0,26.28,1.68,28.24,14.54,30.47l7.83,1.4c2.24,1.68,1.96,8.11-.28,9.79-15.1-.56-28.8-.84-41.94-.84s-27.4.28-42.5.84c-2.24-1.68-2.24-8.11,0-9.79l7.83-1.4c12.86-2.24,14.54-4.19,14.54-30.47v-102.88c0-26.28-1.68-28.24-14.54-30.47l-7.83-1.4c-2.24-1.68-2.24-8.11,0-9.79,15.1.56,29.08.84,42.5.84s27.12-.28,42.22-.84c2.24,1.68,2.24,8.11,0,9.79l-7.83,1.4c-12.86,2.24-14.54,4.19-14.54,30.47v102.88Z"/><path d="m1430.57,222.72c-6.71,0-7.55.28-9.23,5.59l-10.9,32.43c-1.68,5.59-1.96,7.83-1.96,10.06,0,1.68,3.63,3.35,11.46,4.75l8.39,1.4c1.68,1.96,2.24,8.39-.56,9.79-9.79-.56-19.85-.56-31.59-.84-9.51,0-15.94.84-28.8.84-3.08-1.68-2.8-7.55-.84-9.79l7.55-.84c6.71-.84,12.3-3.08,17.05-13.98,4.75-11.18,10.06-24.6,17.61-44.73l25.44-68.22c6.43-17.61,11.18-27.4,10.34-35.51,13.42-3.08,23.76-16.77,24.32-16.77,3.63,0,5.31,1.4,6.43,5.59,2.24,8.11,5.59,18.45,12.58,38.3l38.02,109.59c5.87,16.77,8.39,23.2,18.73,24.88l10.62,1.68c1.68,1.4,2.24,8.11-.28,9.79-13.42-.56-28.52-.84-43.05-.84s-24.88.28-37.74.84c-3.08-1.68-3.63-7.55-.56-9.79l8.95-1.4c6.43-1.12,7.55-3.08,7.55-4.75,0-1.96-1.96-8.67-5.31-19.01l-7.55-24.04c-1.4-4.47-3.63-5.03-13.42-5.03h-33.27Zm31.87-14.82c6.43,0,7.83-.84,5.59-8.11l-7.27-22.65c-3.91-12.02-8.95-27.12-11.46-32.99-2.24,6.43-7.83,21.53-12.02,34.39l-6.99,20.97c-2.52,7.55-1.12,8.39,5.87,8.39h26.28Z"/><path d="m1770.52,216.57c-14.26,33.83-21.53,55.91-27.96,71.57-2.24,1.4-5.59,2.24-9.78,2.24-3.36,0-5.87-.84-7.55-2.24-3.08-7.55-7.83-22.37-11.74-31.87l-45.29-113.79c-10.62-26.84-12.02-27.4-20.97-29.63l-11.18-2.8c-2.24-3.08-1.4-8.11,1.12-9.51,14.26.28,23.48.84,38.02.84,12.86,0,24.88-.28,41.94-.84,2.24,1.68,1.96,6.99.28,9.51l-8.39,1.68c-5.03,1.12-6.99,2.8-6.99,5.31,0,2.24,4.47,13.98,11.18,30.75l24.6,62.9,9.23,23.48c2.24-4.75,6.71-14.26,10.06-22.65l10.62-26.28c6.99-17.61,19.01-48.93,22.37-58.43,1.96-5.31,2.8-8.39,2.8-10.06,0-1.96-2.24-3.08-8.95-4.75l-8.95-1.96c-2.24-2.24-2.24-8.11,1.12-9.51,13.14.56,23.76.84,34.39.84,9.5,0,17.89-.28,26-.84,2.24,1.12,2.52,7.83.56,9.51l-7.27,1.4c-7.83,1.4-12.58,3.35-16.21,9.23-6.15,9.23-13.14,24.88-22.65,47.53l-20.41,48.37Z"/><path d="m2045.35,192.8c0,60.95-40.82,97.57-100.92,97.57-56.19,0-97.01-36.9-97.01-95.33,0-55.35,41.38-98.13,99.81-98.13s98.13,39.14,98.13,95.89Zm-100.37-83.03c-34.39,0-52.84,32.15-52.84,78.84,0,34.11,12.02,88.9,57.59,88.9,36.62,0,50.88-35.79,50.88-81.08,0-47.81-20.97-86.67-55.63-86.67Z"/><path d="m2161.93,245.64c0,26,1.68,28.24,14.26,29.91l11.18,1.4c1.96,1.68,1.96,8.11,0,9.79-18.17-.56-31.87-.84-45.29-.84s-27.4.28-43.89.84c-2.24-1.68-2.24-8.11,0-9.79l9.51-1.4c12.58-1.96,14.26-3.91,14.26-29.91v-13.98c0-13.98-.28-18.45-7.55-33.27l-33.27-68.77c-5.59-11.46-8.11-15.94-17.89-17.61l-9.51-1.68c-2.52-2.24-2.24-8.95,1.12-9.79,12.58.56,22.93.84,39.42.84s31.31-.28,40.82-.84c2.52,1.12,3.08,7.55.56,9.79l-9.51,2.24c-5.03,1.12-6.71,2.24-6.71,2.52,0,2.24,1.4,6.43,7.27,19.57l13.14,29.91c4.19,9.23,10.62,22.09,13.98,29.08,8.11-13.7,16.77-31.87,24.04-46.13,10.06-19.85,13.42-28.24,13.42-31.59,0-1.68-4.47-3.35-11.18-4.47l-5.31-1.12c-2.24-1.4-2.52-8.39.28-9.79,11.18.56,21.25.84,31.31.84,10.62,0,19.29-.28,27.4-.84,3.36,1.12,3.36,7.83,1.12,9.79l-7.27,1.4c-5.03.84-11.46,2.8-14.54,6.71-4.19,5.31-10.9,15.38-24.32,39.7l-17.61,31.87c-7.27,13.14-9.23,20.13-9.23,36.06v19.57Z"/><path d="m2291.93,222.72c-6.71,0-7.55.28-9.23,5.59l-10.9,32.43c-1.68,5.59-1.96,7.83-1.96,10.06,0,1.68,3.63,3.35,11.46,4.75l8.39,1.4c1.68,1.96,2.24,8.39-.56,9.79-9.79-.56-19.85-.56-31.59-.84-9.5,0-15.94.84-28.8.84-3.08-1.68-2.8-7.55-.84-9.79l7.55-.84c6.71-.84,12.3-3.08,17.05-13.98,4.75-11.18,10.06-24.6,17.61-44.73l25.44-68.22c6.43-17.61,11.18-27.4,10.34-35.51,13.42-3.08,23.76-16.77,24.32-16.77,3.63,0,5.31,1.4,6.43,5.59,2.24,8.11,5.59,18.45,12.58,38.3l38.02,109.59c5.87,16.77,8.39,23.2,18.73,24.88l10.62,1.68c1.68,1.4,2.24,8.11-.28,9.79-13.42-.56-28.52-.84-43.05-.84s-24.88.28-37.74.84c-3.08-1.68-3.63-7.55-.56-9.79l8.95-1.4c6.43-1.12,7.55-3.08,7.55-4.75,0-1.96-1.96-8.67-5.31-19.01l-7.55-24.04c-1.4-4.47-3.63-5.03-13.42-5.03h-33.27Zm31.87-14.82c6.43,0,7.83-.84,5.59-8.11l-7.27-22.65c-3.91-12.02-8.95-27.12-11.46-32.99-2.24,6.43-7.83,21.53-12.02,34.39l-6.99,20.97c-2.52,7.55-1.12,8.39,5.87,8.39h26.28Z"/><path d="m2607.29,254.31c0,11.74.56,17.33,5.87,18.45,1.12,1.12.84,5.87-.84,6.71-4.75.84-12.02,1.68-19.57,4.19-9.79,3.08-33.83,6.71-49.48,6.71-19.01,0-35.23-1.96-55.08-9.79-32.71-13.14-55.08-44.17-55.08-84.43,0-34.95,15.66-65.7,49.21-84.43,19.01-10.34,41.66-14.82,65.42-14.82,31.03,0,46.41,6.71,55.35,6.71.84,8.39,1.12,27.96,3.91,45.01-1.12,3.08-8.67,3.35-10.62.56-8.95-26.28-26.56-39.42-52.56-39.42-44.45,0-65.98,36.9-65.98,81.08,0,39.98,13.7,63.74,31.87,76.04,13.42,8.95,27.96,10.62,38.3,10.62,15.94,0,19.29-3.08,19.29-21.25v-17.61c0-15.1-1.68-16.77-15.1-18.73l-12.3-1.68c-3.08-1.68-3.08-8.11,0-9.79,19.85.56,33.55.84,47.25.84s27.12-.28,36.62-.84c2.24,1.68,2.24,8.11,0,9.79l-6.43,1.12c-8.39,1.4-10.07,4.19-10.07,19.29v15.66Z"/><path d="m2718.56,174.07c0,7.83.28,8.39,7.83,8.39h19.29c14.54,0,17.89-1.96,20.69-15.38l1.4-6.99c1.96-2.24,8.95-2.24,10.34.28-.56,8.95-.84,19.01-.84,29.63s.28,20.69.84,29.63c-1.4,2.52-8.39,2.8-10.34.28l-1.4-6.99c-2.79-13.42-6.15-15.66-20.69-15.66h-19.29c-7.55,0-7.83.28-7.83,8.67v33.27c0,12.86,1.12,21.81,4.47,26.56,3.63,5.03,8.95,7.27,29.35,7.27,24.32,0,33.83-.84,49.21-32.43,2.24-3.08,9.23-1.96,10.34,1.4-1.12,14.54-7.83,37.18-11.74,44.73-14.82-.56-41.66-.84-64.58-.84h-36.34c-13.42,0-27.12.28-48.09.84-2.24-1.68-2.24-8.39,0-9.79l13.14-1.96c12.58-1.96,14.26-3.63,14.26-29.35v-104.28c0-25.44-1.68-27.12-14.26-29.63l-6.99-1.4c-2.52-1.68-2.24-8.11.56-9.79,13.14.56,26.84.84,40.26.84h59.27c17.89,0,33.83-.28,37.46-.84.28,4.47,2.24,24.6,3.63,43.33-1.12,3.08-7.55,3.63-10.34,1.12-3.08-9.78-6.99-18.17-10.62-22.09-5.31-5.31-13.7-8.67-27.4-8.67h-22.37c-9.23,0-9.23.56-9.23,10.9v48.92Z"/><path d="m2894.96,290.37c-25.72,0-41.66-7.27-47.53-10.62-5.31-6.15-8.95-26.28-8.95-45.29,1.96-3.63,8.39-3.91,10.62-.84,5.59,18.17,24.32,43.89,48.09,43.89,20.69,0,30.19-14.26,30.19-28.24,0-22.65-21.25-36.06-38.02-44.45-20.13-10.06-42.22-26.84-42.22-54.52-.28-31.59,24.32-53.4,64.86-53.4,9.23,0,20.69,1.12,31.87,4.47,3.63,1.12,6.15,1.68,9.51,2.24,2.24,6.15,5.03,21.25,5.03,39.98-1.4,3.35-8.39,3.63-10.9.84-4.75-14.26-16.77-34.67-36.9-34.67-18.45,0-28.52,12.02-28.52,26,0,12.86,11.46,24.6,25.44,31.87l18.45,9.79c17.33,9.23,39.42,25.44,39.42,56.19,0,34.39-28.24,56.75-70.45,56.75Z"/><path d="m903.87,556.53c-1.96-6.15-3.08-6.99-11.46-6.99h-42.22c-6.99,0-8.67.84-10.62,6.71l-9.79,29.36c-4.19,12.58-6.15,20.13-6.15,23.2,0,3.36,1.4,5.03,8.11,5.59l9.23.84c1.96,1.4,1.96,5.87-.56,6.99-7.27-.56-15.94-.56-29.08-.84-9.23,0-19.29.56-26.84.84-1.68-1.12-2.24-5.59-.56-6.99l9.23-.84c6.71-.56,12.86-3.63,16.77-13.7,5.03-12.86,12.86-31.03,24.6-62.34l28.52-75.48c3.91-10.07,5.59-15.38,4.75-19.85,6.71-1.96,11.46-6.99,14.54-10.62,1.68,0,3.63.56,4.19,2.52,3.63,12.3,8.11,25.16,12.3,37.46l38.3,112.39c8.11,24.04,11.74,28.24,23.76,29.63l7.55.84c1.96,1.4,1.4,5.87,0,6.99-11.46-.56-21.25-.84-33.83-.84-13.42,0-24.04.56-32.15.84-2.24-1.12-2.52-5.59-.56-6.99l8.11-.84c5.87-.56,9.79-2.24,9.79-5.03,0-3.08-1.4-8.11-3.63-14.82l-12.3-38.02Zm-55.35-24.88c-2.24,6.43-1.96,6.71,5.87,6.71h34.39c8.11,0,8.67-1.12,6.15-8.67l-15.1-45.57c-2.24-6.71-4.75-14.26-6.43-17.61h-.56c-.84,1.4-3.63,8.11-6.71,16.5l-17.61,48.65Z"/><path d="m1027.99,456.16c20.41-15.94,46.41-23.76,75.48-23.76,15.1,0,36.34,3.08,49.48,6.71,3.35.84,5.31,1.4,7.83,1.12.28,6.43,1.68,24.04,3.91,41.1-1.4,1.96-5.59,2.24-7.55.56-4.19-19.01-16.77-40.82-57.31-40.82-42.77,0-79.12,27.12-79.12,84.99s37.18,91.14,83.03,91.14c36.06,0,52-23.48,58.43-39.98,1.96-1.4,6.15-.84,7.27,1.12-1.96,14.54-9.23,32.99-13.42,38.3-3.35.56-6.71,1.68-9.78,2.8-6.15,2.24-26.28,6.43-44.17,6.43-25.16,0-49.2-5.03-69.61-18.73-22.37-15.38-39.7-40.82-39.7-76.88,0-31.03,13.98-57.59,35.23-74.09Z"/><path d="m1308.4,556.53c-1.96-6.15-3.08-6.99-11.46-6.99h-42.22c-6.99,0-8.67.84-10.62,6.71l-9.79,29.36c-4.19,12.58-6.15,20.13-6.15,23.2,0,3.36,1.4,5.03,8.11,5.59l9.23.84c1.96,1.4,1.96,5.87-.56,6.99-7.27-.56-15.94-.56-29.08-.84-9.23,0-19.29.56-26.84.84-1.68-1.12-2.24-5.59-.56-6.99l9.23-.84c6.71-.56,12.86-3.63,16.77-13.7,5.03-12.86,12.86-31.03,24.6-62.34l28.52-75.48c3.91-10.07,5.59-15.38,4.75-19.85,6.71-1.96,11.46-6.99,14.54-10.62,1.68,0,3.63.56,4.19,2.52,3.63,12.3,8.11,25.16,12.3,37.46l38.3,112.39c8.11,24.04,11.74,28.24,23.76,29.63l7.55.84c1.96,1.4,1.4,5.87,0,6.99-11.46-.56-21.25-.84-33.83-.84-13.42,0-24.04.56-32.15.84-2.24-1.12-2.52-5.59-.56-6.99l8.11-.84c5.87-.56,9.79-2.24,9.79-5.03,0-3.08-1.4-8.11-3.63-14.82l-12.3-38.02Zm-55.35-24.88c-2.24,6.43-1.96,6.71,5.87,6.71h34.39c8.11,0,8.67-1.12,6.15-8.67l-15.1-45.57c-2.24-6.71-4.75-14.26-6.43-17.61h-.56c-.84,1.4-3.63,8.11-6.71,16.5l-17.61,48.65Z"/><path d="m1424.14,473.21c0-19.57-1.4-25.44-13.14-27.12l-6.15-.84c-2.24-1.4-2.52-5.87.28-6.99,23.76-1.4,46.41-2.24,70.17-2.24s43.33,1.68,61.51,8.39c37.74,13.7,56.75,45.57,56.75,82.47s-17.05,65.98-48.92,83.31c-18.17,9.79-41.1,13.42-62.62,13.42-17.89,0-35.79-2.24-45.57-2.24-11.74,0-21.81.28-34.95.84-1.68-.84-2.24-5.31-.56-6.99l6.43-.84c16.22-2.24,16.77-5.59,16.77-34.95v-106.24Zm22.92,99.81c0,14.82.84,23.76,5.59,30.47,6.15,8.67,16.77,11.46,34.39,11.46,54.24,0,78.56-35.51,78.56-87.51,0-30.75-14.82-82.75-88.06-82.75-16.5,0-25.44,2.24-27.68,3.91-2.24,1.68-2.8,8.67-2.8,21.25v103.16Z"/><path d="m1661.78,478.81c0-29.08-.56-33.27-17.05-35.23l-4.47-.56c-1.68-1.12-1.12-6.15.56-6.99,12.02.56,21.53.84,32.99.84h52.56c17.89,0,34.39,0,37.74-.84,1.68,4.75,3.35,24.88,4.47,37.18-1.12,1.68-5.59,2.24-6.99.56-4.19-13.14-6.71-22.92-21.25-26.56-5.87-1.4-14.82-1.68-27.12-1.68h-20.13c-8.39,0-8.39.56-8.39,11.18v55.92c0,7.83.84,7.83,9.23,7.83h16.22c11.74,0,20.41-.56,23.76-1.68,3.35-1.12,5.31-2.8,6.71-9.79l2.24-11.46c1.4-1.68,6.15-1.68,7.27.28,0,6.71-1.12,17.61-1.12,28.24,0,10.06,1.12,20.69,1.12,26.84-1.12,1.96-5.87,1.96-7.27.28l-2.52-10.9c-1.12-5.03-3.08-9.23-8.67-10.62-3.91-1.12-10.62-1.4-21.53-1.4h-16.22c-8.39,0-9.23.28-9.23,7.55v39.42c0,14.82.84,24.32,5.31,29.08,3.36,3.35,9.23,6.43,33.83,6.43,21.53,0,29.63-1.12,35.79-4.19,5.03-2.8,12.58-12.58,19.85-27.12,1.96-1.4,5.87-.56,6.99,1.96-1.96,9.79-8.95,31.31-12.58,38.86-25.16-.56-50.04-.84-74.93-.84h-25.16c-12.02,0-21.53.28-38.02.84-1.68-.84-2.24-5.31-.56-6.99l9.23-.84c15.94-1.4,17.33-5.59,17.33-34.95v-100.65Z"/><path d="m1917.59,546.74c6.43,13.14,12.58,26,19.29,38.3h.56c7.55-13.14,14.54-27.68,21.53-41.94l26.28-53.4c12.58-25.44,20.69-40.82,21.25-53.68,9.51.84,15.38.84,20.97.84,6.99,0,16.21-.28,24.88-.84,1.68,1.12,1.68,5.87.28,6.99l-5.87.56c-17.61,1.68-19.85,6.99-19.57,26.56.56,29.63.84,81.36,3.08,121.61.84,13.98.56,21.53,13.7,22.65l8.95.84c1.68,1.68,1.4,5.87-.56,6.99-11.46-.56-22.92-.84-32.99-.84s-22.37.28-33.83.84c-1.96-1.4-2.24-5.31-.56-6.99l8.11-.84c13.7-1.4,13.7-5.87,13.7-23.76l-.84-116.58h-.56c-1.96,3.08-12.58,25.44-18.17,36.34l-24.88,48.93c-12.58,24.6-25.16,50.88-30.19,63.74-.56.84-1.68,1.12-2.8,1.12-.56,0-1.96-.28-2.52-1.12-4.75-14.82-18.17-42.22-24.6-55.92l-25.16-53.96c-5.87-12.86-11.74-27.4-17.89-40.26h-.56c-1.12,17.33-1.96,33.55-2.8,49.76-.84,17.05-1.96,41.94-1.96,65.7,0,20.69,1.68,25.16,12.58,26l10.62.84c1.96,1.68,1.68,6.15-.28,6.99-9.5-.56-20.41-.84-31.03-.84-8.95,0-19.01.28-28.52.84-1.68-1.4-2.24-5.59-.56-6.99l6.15-.84c11.74-1.68,15.66-3.35,17.33-22.92,1.68-18.45,3.08-33.83,4.75-61.51,1.4-23.2,2.52-46.97,3.08-62.34.56-17.61-1.68-21.81-18.73-24.04l-4.47-.56c-1.4-1.68-1.12-5.87,1.12-6.99,8.39.56,15.1.84,22.09.84,6.43,0,13.98,0,23.21-.84-1.12,10.9,5.87,28.24,14.54,46.13l31.87,64.58Z"/><path d="m2177.31,578.89c0,29.91,1.68,34.39,16.77,35.51l10.62.84c1.68,1.68,1.12,6.15-.56,6.99-17.33-.56-26.84-.84-38.02-.84-11.74,0-21.81.28-36.62.84-1.68-.84-2.24-5.31-.56-6.99l8.67-.84c16.21-1.68,16.77-5.59,16.77-35.51v-14.26c0-15.38-.84-19.01-8.95-34.67l-32.99-64.3c-9.5-18.45-13.7-19.85-22.09-21.25l-7.83-1.4c-1.68-1.96-1.4-5.87.56-6.99,8.95.56,19.01.84,32.43.84s22.92-.28,29.91-.84c2.52.84,2.52,5.31.84,6.99l-3.63.56c-9.79,1.4-11.74,2.8-11.74,5.03,0,2.8,7.27,18.73,8.67,21.53,10.34,20.69,20.69,42.77,31.59,62.06,8.67-14.82,17.89-31.03,26.28-47.25,7.83-14.54,18.17-33.55,18.17-36.9,0-1.68-5.03-3.63-11.74-4.47l-5.03-.56c-1.96-1.96-1.68-5.87.56-6.99,10.06.56,18.17.84,26.84.84s16.49-.28,26-.84c2.24,1.4,2.52,5.31.56,6.99l-7.83,1.4c-14.54,2.52-22.93,20.13-36.9,44.17l-17.61,30.47c-12.3,21.25-13.14,23.76-13.14,45.29v14.54Z"/></g></svg>