<?xml version="1.0" encoding="UTF-8"?><svg id="Layer_1" xmlns="http://www.w3.org/2000/svg" viewBox="0 0 2565.35 511.19"><defs><style>.cls-1,.cls-2,.cls-3{fill:#fff;}.cls-2{stroke-width:6.99px;}.cls-2,.cls-4,.cls-3{stroke-miterlimit:10;}.cls-2,.cls-3{stroke:#fff;}.cls-4{fill:none;stroke:#ffe2ae;stroke-linecap:round;stroke-width:6px;}.cls-3{stroke-width:8px;}</style></defs><g><path class="cls-1" d="m257.04,496.55v-152.84H102.47L23.26,496.55H5.59L258.36,3.4h262.27v13.78h-187.59v201.6h168.41v13.78h-168.41v250.22h205.93v13.78h-281.94.01Zm0-166.67V45.8L109.35,329.9h147.69Z"/><path class="cls-1" d="m517.23,6.82v6.95h-187.59v208.43h168.41v6.95h-168.41v257.07h205.93v6.95h-275.11v-152.84H100.4L21.19,493.17h-10L260.46,6.85h256.77M103.73,333.36h156.73V31.85L103.73,333.36M524.06.01h-267.79l-1.91,3.71L5.1,490.05l-5.1,9.95h25.35l1.91-3.7,77.3-149.16h149.07v152.84h288.78v-20.62h-205.93v-243.39h168.41v-20.62h-168.41V20.62h187.59V0h0ZM114.98,326.55L253.62,59.83v266.71H114.98Z"/></g><g><g><g><path class="cls-3" d="m829.98,25.58v84.33h84.65v17.89h-84.65v85.6h94.23v17.89h-116.59v-53.02h-87.52l-30.66,53.02h-24.59L794.52,7.7h129.68v17.89h-94.23Zm-22.36,134.79V26.86l-77.3,133.52h77.3Z"/><path class="cls-3" d="m1087.43,231.29l-55.26-93.27h-41.2v93.27h-22.36V8.02h67.08c24.91,0,43.81,5.96,56.7,17.89,12.88,11.93,19.32,27.58,19.32,46.95,0,16.19-4.63,29.98-13.89,41.36-9.26,11.39-22.95,18.8-41.04,22.2l57.49,94.87h-26.83Zm-96.46-111.48h45.04c17.46,0,30.61-4.26,39.45-12.78,8.83-8.51,13.26-19.91,13.26-34.18s-4.26-26.03-12.78-34.02c-8.52-7.99-21.93-11.98-40.25-11.98h-44.72v92.95Z"/><path class="cls-3" d="m1178.46,8.02v223.27h-22.36V8.02h22.36Z"/><path class="cls-3" d="m1358.6,178.27h-101.57l-19.48,53.02h-23.64l81.45-220.4h25.23l81.13,220.4h-23.64l-19.49-53.02Zm-6.71-18.53l-44.08-120.74-44.08,120.74h88.16Z"/><path class="cls-3" d="m1701.97,8.02l-84.65,223.27h-25.55l-84.65-223.27h24.28l73.15,199,73.78-199h23.64Z"/><path class="cls-3" d="m1745.47,222.68c-11.93-6.78-21.35-16.25-28.28-28.4-6.93-12.15-10.4-25.82-10.4-41.03s3.46-28.88,10.4-41.03c6.93-12.15,16.36-21.61,28.28-28.4,11.92-6.78,25.12-10.17,39.58-10.17s27.87,3.39,39.8,10.17c11.92,6.78,21.31,16.21,28.17,28.28,6.85,12.07,10.29,25.79,10.29,41.14s-3.43,29.07-10.29,41.14c-6.86,12.07-16.25,21.5-28.17,28.28-11.93,6.78-25.19,10.17-39.8,10.17s-27.65-3.39-39.58-10.17Zm68.98-15.09c8.72-5.07,15.58-12.3,20.57-21.69,4.99-9.39,7.49-20.27,7.49-32.64s-2.5-23.44-7.49-32.76c-5-9.31-11.82-16.51-20.46-21.58-8.65-5.07-18.48-7.6-29.52-7.6s-20.87,2.54-29.51,7.6c-8.65,5.07-15.47,12.26-20.46,21.58-5,9.32-7.49,20.24-7.49,32.76s2.49,23.25,7.49,32.64c4.99,9.39,11.85,16.62,20.57,21.69,8.72,5.07,18.52,7.6,29.4,7.6s20.68-2.53,29.4-7.6Z"/><path class="cls-3" d="m1999.25,75.45l-50.76,97.04v58.8h-20.35v-58.8l-50.98-97.04h22.58l38.46,78.93,38.46-78.93h22.58Z"/><path class="cls-3" d="m2112.83,196.63h-67.97l-12.52,34.66h-21.47l56.35-154.95h23.48l56.12,154.95h-21.47l-12.52-34.66Zm-5.81-16.55l-28.17-78.7-28.17,78.7h56.34Z"/><path class="cls-3" d="m2289.47,120.61c-4.33-9.09-10.59-16.13-18.78-21.13-8.2-4.99-17.74-7.49-28.62-7.49s-20.68,2.5-29.4,7.49c-8.72,5-15.58,12.15-20.57,21.46-5,9.32-7.49,20.09-7.49,32.31s2.49,22.96,7.49,32.2c4.99,9.24,11.85,16.36,20.57,21.35,8.72,5,18.52,7.49,29.4,7.49,15.21,0,27.73-4.55,37.56-13.64,9.84-9.09,15.57-21.39,17.22-36.89h-62.16v-16.55h83.85v15.65c-1.2,12.82-5.22,24.56-12.07,35.22-6.86,10.66-15.87,19.08-27.06,25.27-11.18,6.19-23.63,9.28-37.34,9.28-14.46,0-27.65-3.39-39.58-10.17-11.93-6.78-21.35-16.21-28.28-28.28-6.93-12.07-10.4-25.71-10.4-40.92s3.46-28.88,10.4-41.03c6.93-12.15,16.36-21.61,28.28-28.4,11.92-6.78,25.12-10.17,39.58-10.17,16.55,0,31.19,4.1,43.94,12.3,12.75,8.2,22.02,19.75,27.84,34.66h-24.37Z"/><path class="cls-3" d="m2365.71,91.99v52.1h56.79v16.77h-56.79v53.66h63.5v16.77h-83.85V75.22h83.85v16.77h-63.5Z"/><path class="cls-3" d="m2481.87,227.38c-8.13-3.65-14.5-8.72-19.12-15.2-4.62-6.48-7.01-13.97-7.16-22.47h21.69c.74,7.31,3.76,13.45,9.05,18.45,5.29,5,13,7.49,23.14,7.49s17.33-2.42,22.92-7.27c5.59-4.84,8.38-11.07,8.38-18.67,0-5.96-1.64-10.81-4.92-14.53-3.28-3.72-7.38-6.56-12.3-8.5-4.92-1.94-11.55-4.02-19.9-6.26-10.29-2.68-18.52-5.37-24.71-8.05-6.19-2.68-11.48-6.89-15.87-12.63-4.4-5.74-6.6-13.45-6.6-23.14,0-8.5,2.16-16.02,6.48-22.58,4.32-6.56,10.4-11.63,18.22-15.2,7.83-3.58,16.81-5.37,26.94-5.37,14.61,0,26.57,3.65,35.89,10.96,9.31,7.31,14.57,16.99,15.76,29.07h-22.36c-.75-5.96-3.88-11.21-9.39-15.76-5.52-4.55-12.82-6.82-21.91-6.82-8.5,0-15.43,2.2-20.79,6.6-5.37,4.4-8.05,10.55-8.05,18.45,0,5.67,1.6,10.29,4.81,13.86,3.2,3.58,7.15,6.3,11.85,8.16,4.7,1.87,11.29,3.99,19.79,6.37,10.29,2.83,18.56,5.63,24.82,8.38,6.26,2.76,11.63,7.01,16.1,12.74,4.47,5.74,6.71,13.53,6.71,23.37,0,7.6-2.01,14.76-6.04,21.46s-9.99,12.15-17.89,16.32c-7.9,4.17-17.22,6.26-27.95,6.26s-19.49-1.82-27.61-5.48Z"/></g><g><path class="cls-2" d="m801.41,460.22h-88.7l-17.01,46.3h-20.64l71.13-192.46h22.04l70.85,192.46h-20.64l-17.01-46.3Zm-5.86-16.18l-38.49-105.43-38.49,105.43h76.98Z"/><path class="cls-2" d="m865.37,402.56c5.99-10.61,14.16-18.91,24.5-24.89,10.35-5.99,21.83-8.98,34.46-8.98,14.84,0,27.79,3.58,38.85,10.74,11.06,7.16,19.13,17.31,24.21,30.46h-21.28c-3.78-8.2-9.21-14.51-16.3-18.94-7.1-4.42-15.59-6.64-25.48-6.64s-18.03,2.21-25.58,6.64c-7.55,4.43-13.47,10.71-17.77,18.84-4.3,8.14-6.44,17.67-6.44,28.6s2.15,20.28,6.44,28.41c4.3,8.14,10.22,14.42,17.77,18.84,7.55,4.43,16.07,6.64,25.58,6.64s18.38-2.18,25.48-6.54c7.09-4.36,12.53-10.64,16.3-18.84h21.28c-5.08,13.02-13.15,23.07-24.21,30.17-11.06,7.1-24.02,10.64-38.85,10.64-12.63,0-24.11-2.96-34.46-8.88-10.35-5.92-18.52-14.16-24.5-24.7-5.99-10.54-8.98-22.45-8.98-35.73s2.99-25.22,8.98-35.83Z"/><path class="cls-2" d="m1094.19,476.26h-59.36l-10.93,30.26h-18.74l49.2-135.31h20.5l49.01,135.31h-18.74l-10.93-30.26Zm-5.08-14.45l-24.6-68.73-24.6,68.73h49.2Z"/><path class="cls-2" d="m1226.28,378.74c10.87,5.53,19.2,13.44,24.99,23.72,5.79,10.28,8.69,22.39,8.69,36.32s-2.9,26-8.69,36.22c-5.79,10.22-14.12,18.03-24.99,23.43-10.87,5.4-23.72,8.1-38.56,8.1h-42.37v-136.09h42.37c14.84,0,27.69,2.77,38.56,8.3Zm1.66,99.19c9.24-9.3,13.86-22.36,13.86-39.15s-4.66-30.13-13.96-39.63c-9.31-9.5-22.68-14.25-40.12-14.25h-24.6v107h24.6c17.57,0,30.98-4.65,40.22-13.96Z"/><path class="cls-2" d="m1301.15,384.89v45.49h49.59v14.64h-49.59v46.86h55.45v14.64h-73.22v-136.28h73.22v14.64h-55.45Z"/><path class="cls-2" d="m1521.58,371.41v135.11h-17.77v-100.75l-44.91,100.75h-12.5l-45.1-100.94v100.94h-17.77v-135.11h19.13l49.98,111.68,49.98-111.68h18.94Z"/><path class="cls-2" d="m1646.93,370.44l-44.32,84.74v51.35h-17.77v-51.35l-44.52-84.74h19.72l33.58,68.92,33.58-68.92h19.72Z"/></g></g><line class="cls-4" x1="664.84" y1="274.4" x2="2561.35" y2="274.4"/></g></svg>