<?xml version="1.0" encoding="UTF-8"?><svg id="Layer_1" xmlns="http://www.w3.org/2000/svg" viewBox="0 0 782.01 782.01"><defs><style>.cls-1{fill:#fff;}.cls-2{stroke-width:3px;}.cls-2,.cls-3,.cls-4,.cls-5{stroke-miterlimit:10;}.cls-2,.cls-3,.cls-4,.cls-5,.cls-6{fill:none;stroke:#bc8a2c;}.cls-7{fill:#bd8e33;}.cls-4{stroke-width:1.69px;}.cls-5{stroke-width:6px;}.cls-6{stroke-dasharray:0 0 0 0 0 0 0 19.79 0 19.79 0 19.79;stroke-linecap:round;stroke-linejoin:round;stroke-width:10px;}</style></defs><g><circle class="cls-5" cx="391" cy="391" r="375"/><circle class="cls-2" cx="391" cy="391" r="389.5"/><circle class="cls-6" cx="391" cy="391" r="358.98"/><g><path class="cls-1" d="m151.08,220.83c-1.96-1.43-2.32-1.5-3.51.12l-5.19,7.08c-1.24,1.68-1.21,2.22-.6,3.5,3.83,7.79,7.47,14.4,9.42,17.69.71,1.15,1.15,1.68,1.56,1.97.47.35,1.11.19,2.25-.94l2.28-2.26c1.02-.4,2.58.86,2.31,1.8-1.82,2.19-3.61,4.5-5.84,7.54-2.03,2.76-3.25,4.57-4.89,7.09-.85.31-2.45-.76-2.41-1.66l1.07-2.02c1.16-2.15,1.23-4.08-.59-8.1-5.24-11.52-11.27-23.93-17.77-36.68-1.28-2.5-2.7-5.09-3.37-5.58-.54-.4-1.39-.09-2.12.62l-3.54,3.42c-.92.26-2.57-.74-2.21-1.93,2.46-3.07,4.9-6.25,8.76-11.51l12.76-17.39c3.17-4.31,5.92-8.21,6.43-9.18,1.13.72,6.33,3.81,11.09,6.79.54.81-.46,2.46-1.56,2.69-2.9-.99-5.62-1.53-7.2-1.35-2.22.34-4.51,1.77-6.94,5.07l-3.96,5.39c-1.63,2.22-1.5,2.32,1,4.15l11.8,8.66c1.89,1.38,2.07,1.42,3.41-.4l3.41-4.65c2.57-3.5,2.69-4.66-.05-7.71l-1.44-1.57c-.19-.87,1.04-2.55,1.9-2.45,2.06,1.72,4.43,3.57,7,5.45,2.56,1.88,5.04,3.59,7.29,5.04.36.78-.81,2.52-1.76,2.54l-1.93-.9c-3.73-1.7-4.86-1.29-7.44,2.22l-3.41,4.65c-1.34,1.82-1.32,1.94.7,3.42l8.02,5.88c3.1,2.28,5.46,3.59,7.19,3.62,1.86.01,3.33-.87,6.95-5.79,4.3-5.86,5.78-8.3.89-17.6-.35-1.08,1.16-2.57,2.17-2.25,3.31,2.84,7.58,8.46,8.71,10.74-3.7,4.75-7.33,9.56-11.63,15.42l-6.43,8.76c-2.13,2.9-4.48,6.25-8.06,11.4-.8.24-2.42-.94-2.36-1.73l1.85-3.51c1.75-3.38,1.65-4.08-4.56-8.63l-9.44-6.92Zm-7.08-2.5c1.19-1.62,1.02-1.95-1.27-3.63l-10.78-7.91c-1.75-1.29-2.81-1.96-3.25-2.07l-.25.34c.28,1.03.93,2.55,2.87,6.26l6.61,13.04c.67,1.21.98.93,1.77-.15l4.3-5.86Z"/><path class="cls-1" d="m176.19,164.05c-5.38-6.4-6.1-6.99-9.11-5.11l-1.94,1.2c-.91.22-2.25-1.38-1.76-2.35,4.53-4.36,9.3-8.81,15.37-13.93,5.44-4.58,10.8-7.68,14.47-8.25,5.54-.95,10.15.63,13.6,4.73,4.79,5.69,3,11.35,1.3,15.3-.37.86-.05,1.24.86,1.68,11.44,5.02,18.1,7.6,23.37,7.64,2.79-.06,4.78-1.07,5.79-1.82.84-.17,1.65.79,1.66,1.45-.65,1.31-2.58,3.16-4.57,4.83-5.88,4.95-11.37,5.97-18.06,3.73-4.9-1.67-9.01-3.56-13.33-5.71-2.22-1.08-3.68-.73-5.27.62-2.24,1.88-2.26,2.12-1.18,3.4l6.62,7.86c4.95,5.88,5.71,6.01,9.02,4.1l2-1.13c.72-.06,2.01,1.48,1.88,2.24-3.5,2.73-6.49,5.14-9.56,7.72-3.2,2.69-5.96,5.12-9.18,8.05-.83.05-2.13-1.49-1.88-2.24l1.46-1.77c2.45-2.93,2.45-3.71-2.5-9.59l-19.06-22.64Zm15.6.74c1.88,2.24,2.24,2.27,6.01-.91,2.3-1.94,3.16-3.65,3.35-5.88.17-2-.34-5.07-3.51-8.84-4.85-5.76-11.36-6.61-16.35-2.41-2.62,2.21-2.59,2.51,0,5.58l10.5,12.47Z"/><path class="cls-1" d="m254.21,143.66c3.95,6.79,4.68,7.04,8.34,5.69l2.23-.82c.83.1,1.73,1.8,1.4,2.57-3.98,2.13-7.57,4.12-10.96,6.09-3.47,2.02-7.04,4.19-10.85,6.61-.83-.1-1.8-1.76-1.47-2.53l1.81-1.54c2.99-2.51,3.13-3.27-.83-10.06l-15.48-26.58c-3.95-6.79-4.68-7.04-8.34-5.69l-2.23.82c-.83-.1-1.8-1.76-1.47-2.53,3.98-2.13,7.64-4.16,11.11-6.18,3.4-1.98,6.96-4.15,10.78-6.56.83.1,1.8,1.76,1.47,2.53l-1.81,1.54c-2.99,2.51-3.13,3.27.83,10.06l15.48,26.58Z"/><path class="cls-1" d="m281.03,123.27c-1.88.71-2.08.87-2,2.54l.36,10.23c.12,1.74.27,2.4.51,3.02.18.47,1.37.56,3.71.13l2.49-.49c.68.37,1.51,2.11.87,2.8-2.8.87-5.62,1.93-8.93,3.09-2.66,1-4.37,1.91-7.97,3.26-1.04-.15-1.58-1.82-1.26-2.65l2.02-1.03c1.79-.94,3.12-2.15,3.3-5.71.16-3.63.23-7.94.23-14.37l-.05-21.77c-.05-5.61.25-8.85-.84-11.03,3.43-2.27,4.89-7.19,5.05-7.25,1.02-.38,1.63-.17,2.39.89,1.48,2.03,3.51,4.58,7.55,9.4l22.17,26.68c3.41,4.08,4.79,5.61,7.86,5l3.15-.65c.62.21,1.48,2.03.95,2.77-3.82,1.25-8.07,2.76-12.14,4.29-3.91,1.47-6.94,2.69-10.48,4.2-1.04-.15-1.81-1.73-1.19-2.68l2.36-1.33c1.68-.99,1.79-1.66,1.61-2.12-.21-.55-1.46-2.22-3.48-4.76l-4.64-5.94c-.86-1.1-1.55-1.03-4.29,0l-9.31,3.5Zm7.36-7.5c1.8-.68,2.1-1.06.71-2.86l-4.42-5.58c-2.36-2.95-5.36-6.65-6.68-8.03.05,2.03.07,6.85.25,10.89l.25,6.6c.09,2.38.57,2.47,2.53,1.73l7.36-2.76Z"/><path class="cls-1" d="m409.89,100.51c-4.68,9.93-7.13,16.44-9.25,21.03-.69.39-1.7.6-2.95.55-1-.04-1.74-.32-2.23-.76-.82-2.29-2.06-6.78-3.11-9.67l-12.11-34.56c-2.84-8.15-3.25-8.34-5.89-9.12l-3.31-.98c-.63-.95-.32-2.44.45-2.83,4.26.26,7.01.54,11.35.73,3.84.16,7.44.23,12.54.28.65.53.5,2.11-.04,2.84l-2.53.4c-1.52.27-2.12.75-2.15,1.5-.03.67,1.16,4.23,2.96,9.33l6.56,19.1,2.46,7.13c.73-1.39,2.18-4.18,3.29-6.64l3.5-7.72c2.31-5.17,6.29-14.38,7.41-17.18.65-1.56.94-2.47.96-2.97.02-.58-.63-.95-2.61-1.53l-2.65-.7c-.64-.7-.57-2.45.45-2.83,3.92.33,7.09.55,10.26.68,2.84.12,5.35.14,7.78.08.65.36.65,2.37.05,2.85l-2.19.33c-2.36.32-3.8.84-4.96,2.55-1.95,2.68-4.24,7.27-7.36,13.92l-6.7,14.19Z"/><path class="cls-1" d="m493.22,109.24c-4.48,17.66-19,25.28-36.42,20.87-16.29-4.13-25.41-17.82-21.11-34.76,4.07-16.04,19.2-25.4,36.13-21.11,16.85,4.27,25.57,18.55,21.4,35Zm-22.99-31.44c-9.97-2.53-17.68,5.44-21.1,18.97-2.5,9.89-3.04,26.65,10.16,30,10.61,2.69,17.38-6.63,20.7-19.76,3.51-13.86.29-26.66-9.76-29.2Z"/><path class="cls-1" d="m520.2,139.76c-3.4,6.99-3.24,7.81-.07,9.91l2.83,1.84c.31.71-.53,2.44-1.28,2.63-4.81-2.52-8.46-4.39-12.07-6.14-3.61-1.75-7.41-3.5-11.92-5.51-.38-.74.46-2.47,1.28-2.63l2.74.87c3.64,1.12,4.35.81,7.74-6.18l1.83-3.76c1.83-3.76,2.33-5,2.31-9.93l.03-22.84c0-3.81-.1-5.35-2.51-7.07l-2.34-1.69c-.38-.93.57-2.7,1.58-2.49,3.31,1.79,6.06,3.22,10.49,5.38,4.59,2.23,8.46,4.01,11.09,5.11.53.63-.16,2.43-1.13,2.71l-2.85-.64c-1.5-.36-2.1-.28-2.13-.2-.29.6-.46,1.91-.6,6.21l-.37,9.76c-.08,3.03-.03,7.33-.04,9.65,3.97-2.63,8.68-6.38,12.49-9.27,5.3-4.02,7.3-5.84,7.74-6.74.22-.45-.77-1.49-2.42-2.66l-1.28-1c-.42-.67.42-2.58,1.35-2.6,2.93,1.61,5.61,3,8.31,4.31,2.86,1.39,5.23,2.45,7.48,3.36.76.74-.12,2.54-.98,2.78l-2.14-.57c-1.46-.43-3.45-.75-4.79-.09-1.82.88-4.94,2.71-11.73,7.5l-8.9,6.27c-3.67,2.58-5.11,4.21-7.19,8.5l-2.56,5.26Z"/><path class="cls-1" d="m557.18,154.07c-1.6-1.2-1.86-1.29-3.21-.32l-8.42,5.8c-1.4,1.04-1.87,1.52-2.27,2.06-.3.4.27,1.46,1.89,3.19l1.76,1.84c.05.77-.97,2.41-1.89,2.24-2.24-1.89-4.65-3.69-7.41-5.87-2.27-1.71-3.96-2.66-7.04-4.96-.44-.95.69-2.31,1.56-2.49l1.96,1.15c1.75,1,3.49,1.47,6.59-.29,3.14-1.82,6.82-4.08,12.24-7.54l18.32-11.76c4.7-3.06,7.59-4.55,8.84-6.64,3.76,1.67,8.69.25,8.83.35.87.65,1.02,1.29.54,2.49-.92,2.34-1.97,5.42-3.86,11.42l-10.56,33.04c-1.6,5.07-2.16,7.06.02,9.31l2.24,2.31c.15.64-.92,2.34-1.82,2.29-3.11-2.54-6.67-5.32-10.15-7.92-3.34-2.51-6-4.4-9.18-6.57-.43-.95.49-2.46,1.62-2.44l2.39,1.27c1.74.89,2.36.62,2.66.22.35-.47,1.09-2.42,2.14-5.5l2.51-7.11c.47-1.32.03-1.85-2.31-3.61l-7.96-5.97Zm10.28,2.17c1.54,1.15,2.02,1.2,2.79-.94l2.32-6.72c1.22-3.58,2.72-8.09,3.18-9.95-1.69,1.14-5.73,3.75-9.04,6.07l-5.43,3.76c-1.96,1.35-1.77,1.81-.1,3.06l6.29,4.71Z"/><path class="cls-1" d="m618.26,225.93c-2.65,2.31-3.8,3.53-3.01,4.95-.03.47-1.16,1.34-1.68,1.13-1.12-.91-2.74-2.38-4.79-3.59-2.62-1.6-8.16-6.31-11.23-9.84-3.73-4.29-6.48-8.33-8.61-14.34-3.46-9.96-.86-21.09,8.22-29,7.88-6.86,17.89-9.38,28.7-5.49,6.07,2.25,11.52,6.48,16.19,11.84,6.1,7,7.6,11.78,9.36,13.8-1.73,1.84-6.08,5.74-9.38,9.72-.91.35-2.46-1.29-2.21-2.29,4.17-7.18,3.67-13.73-1.44-19.59-8.73-10.02-21.28-7.62-31.24,1.05-9.01,7.85-11.68,15.61-10.88,22.12.62,4.78,3.1,8.39,5.13,10.72,3.13,3.59,4.48,3.75,8.58.17l3.97-3.46c3.4-2.97,3.45-3.67,1.26-7.08l-2.04-3.1c-.23-1.02,1.22-2.29,2.21-1.92,3.77,4.58,6.4,7.73,9.09,10.82,2.64,3.03,5.39,6.06,7.38,8.09.06.83-1.39,2.1-2.21,1.92l-1.52-1.23c-1.96-1.62-2.92-1.45-6.33,1.52l-3.53,3.08Z"/><path class="cls-1" d="m655.71,241.85c-2.05,1.13-2.16,1.28-1.07,3.26l2.78,5.05c2.1,3.81,3.09,4.4,7.01,3.2l2.03-.64c.87.19,1.88,2.02,1.42,2.75-2.42,1.14-5.1,2.52-7.88,4.05-2.78,1.53-5.38,3.06-7.64,4.49-.86,0-1.94-1.79-1.56-2.67l1.63-1.37c3.11-2.67,3.21-3.87,1.12-7.68l-2.78-5.05c-1.09-1.98-1.2-2.01-3.4-.8l-8.71,4.8c-3.37,1.85-5.55,3.44-6.31,5-.79,1.68-.61,3.39,2.33,8.74,3.51,6.37,5.1,8.74,15.59,8.21,1.13.14,1.84,2.14,1.12,2.91-3.97,1.8-10.87,3.31-13.41,3.38-1.99-3.96-5.79-11.03-9.09-17.04l-5.24-9.52c-1.93-3.52-3.98-7.06-7.15-12.48.12-.83,1.87-1.79,2.56-1.41l2.41,3.16c2.33,3.01,3.01,3.21,9.75-.5l27.31-15.04c6.66-3.67,6.86-4.35,5.71-8.01l-.64-2.03c.08-.9,1.8-1.75,2.64-1.26,1.75,3.52,3.65,7.15,5.59,10.67l8.55,15.53c2.58,4.69,4.95,8.82,5.62,9.69-1.13.72-6.12,4.13-10.83,7.2-.97.15-2.04-1.45-1.79-2.55,2.12-2.22,3.75-4.45,4.25-5.97.63-2.16.29-4.84-1.68-8.43l-3.23-5.86c-1.33-2.42-1.48-2.34-4.19-.84l-12.82,7.05Z"/><path class="cls-1" d="m645.67,304.09c-2.42-7.3-1.86-12.51-1.46-14.49,1.24-2.09,6.62-5.01,12.01-6.8,1.21.21,1.9,2.01,1.24,2.94-4.63,3.3-10.17,11.03-7.93,17.78,1.95,5.87,6.89,7.23,10.85,5.91,6.43-2.13,8.24-9.42,9.04-14.97.96-6.66,3.65-14.51,11.5-17.11,8.94-3.05,17.44,1.88,21.26,13.38.87,2.62,1.63,5.98,1.73,9.47.02,1.14.1,1.9.26,2.91-1.53,1.21-5.56,3.43-10.87,5.19-1.08-.08-1.82-2.04-1.26-3.01,3.6-2.69,8.26-8.02,6.37-13.74-1.74-5.24-6.1-6.96-10.06-5.65-3.65,1.21-5.9,5.57-6.65,10.22l-1.04,6.16c-.99,5.79-3.51,13.58-12.24,16.48-9.76,3.24-18.76-2.67-22.74-14.65Z"/></g><circle class="cls-4" cx="391" cy="391" r="219.33"/><circle class="cls-3" cx="391" cy="391" r="159.46"/><circle class="cls-3" cx="391" cy="391" r="149.46"/><g><path class="cls-1" d="m171.75,611.46c-1.48-1.39-1.73-1.5-3.2-.67l-9.13,4.9c-1.53.89-2.05,1.32-2.52,1.82-.35.37.11,1.49,1.55,3.42l1.56,2.04c-.04.78-1.24,2.31-2.15,2.04-2.05-2.15-4.27-4.23-6.81-6.72-2.1-1.97-3.7-3.11-6.54-5.78-.33-1.01.95-2.24,1.84-2.33l1.84,1.38c1.66,1.2,3.36,1.87,6.67.44,3.37-1.49,7.32-3.35,13.16-6.23l19.76-9.8c5.07-2.56,8.15-3.74,9.64-5.7,3.6,2.1,8.73,1.21,8.85,1.33.8.75.88,1.41.26,2.57-1.19,2.25-2.59,5.23-5.15,11.06l-14.3,32.07c-2.18,4.92-2.95,6.86-1.02,9.37l2,2.57c.08.66-1.19,2.25-2.09,2.1-2.85-2.9-6.13-6.09-9.34-9.1-3.09-2.89-5.56-5.09-8.52-7.63-.33-1.01.76-2.42,1.9-2.28l2.27,1.54c1.65,1.08,2.31.88,2.65.51.41-.43,1.36-2.32,2.76-5.3l3.31-6.87c.62-1.28.24-1.86-1.92-3.89l-7.35-6.89Zm10.12,3.33c1.42,1.33,1.9,1.43,2.92-.63l3.08-6.5c1.63-3.46,3.64-7.84,4.3-9.66-1.83.96-6.19,3.13-9.78,5.11l-5.89,3.18c-2.12,1.15-1.99,1.62-.44,3.07l5.81,5.44Z"/><path class="cls-1" d="m269.45,638.8c-.79,1.3-4.11,7.21-6.01,11.8-.82.69-2.95-.21-3.05-1.17,2.15-7.91-.27-14.35-7.28-18.62-8.02-4.89-20.81-3.28-29.59,11.11-8.78,14.38-5.19,27.18,3.48,32.47,8.74,5.33,16.63,1.52,21.58-2.21.93-.23,2.53,1.05,2.44,2.18-3.77,5.04-7.64,8.62-9.67,9.67-4.56-1.3-10.66-2.84-16.3-6.28-7.08-4.32-13.29-10.39-16.09-17.35-2.78-7.15-3.09-15.57,2.38-24.53,5.38-8.82,12.93-12.74,20.43-13.81,7.73-1.13,16.43,1.2,23.94,5.78,7.37,4.5,11.66,9.49,13.74,10.96Z"/><path class="cls-1" d="m280.05,681.44c-1.92-.67-2.19-.68-3.19.67l-6.35,8.18c-1.04,1.43-1.34,2.04-1.56,2.68-.17.48.7,1.32,2.8,2.5l2.26,1.24c.28.73-.2,2.62-1.14,2.74-2.74-1.14-5.62-2.15-8.95-3.4-2.72-.95-4.64-1.35-8.31-2.64-.71-.79-.05-2.44.74-2.88l2.24.51c2,.43,3.82.35,6.27-2.29,2.47-2.72,5.33-6.03,9.5-11.03l14.08-16.96c3.59-4.39,5.93-6.71,6.5-9.12,4.14.46,8.47-2.42,8.62-2.36,1.04.37,1.38.93,1.28,2.24-.17,2.54-.24,5.83-.23,12.21l-.07,35.14c0,5.38.08,7.47,2.87,8.99l2.87,1.54c.34.57-.17,2.54-1.06,2.77-3.78-1.5-8.07-3.09-12.22-4.55-4-1.4-7.14-2.41-10.87-3.54-.71-.79-.29-2.52.82-2.85l2.7.5c1.95.32,2.46-.12,2.63-.6.2-.56.31-2.67.38-5.97l.24-7.63c.05-1.42-.54-1.8-3.33-2.78l-9.51-3.33Zm10.59-1.05c1.84.64,2.32.54,2.41-1.76l.18-7.2c.08-3.83.15-8.65.01-10.58-1.28,1.61-4.39,5.37-6.87,8.63l-4.09,5.3c-1.47,1.91-1.16,2.29.84,2.98l7.51,2.63Z"/><path class="cls-1" d="m335.9,674.49c.88-7.99.88-9.61-2.94-10.46l-1.58-.34c-.79-.51-.53-2.95.49-2.93,7.11.36,13.71.74,22.64,1.72,6.9.76,13.73,2.19,19.3,4.93,10.59,5.16,15.56,15.76,14.41,26.27-1.23,11.28-7.61,19.77-17.82,23.51-6.04,2.23-13.06,2.57-21.72,1.62-3.95-.43-8.11-1.4-11.14-1.73-4.04-.44-8.34-.83-13.15-1.19-.62-.58-.4-2.6.32-2.95l2.66-.13c3.85-.17,4.43-.79,5.28-8.53l3.26-29.79Zm9.11,27.99c-.51,4.63-.67,7.67.65,9.61,1.33,1.85,3.69,2.88,6.72,3.21,14.56,1.6,20.94-10.82,22.19-22.26,1.66-15.15-5.35-25.03-20.58-26.7-2.27-.25-3.92,0-4.5.61-.58.62-.84,2.21-1.12,4.82l-3.36,30.71Z"/><path class="cls-1" d="m421.11,685.54c.27,2.36.37,2.51,2.64,2.25l5.8-.67c4.37-.5,5.31-1.21,5.7-5.34l.18-2.15c.51-.74,2.62-.98,3.12-.27.14,2.71.4,5.75.76,8.95.36,3.2.79,6.22,1.27,8.89-.33.81-2.43,1.13-3.1.44l-.66-2.06c-1.3-3.94-2.39-4.5-6.76-4l-5.8.67c-2.27.26-2.34.35-2.06,2.88l1.14,10.01c.44,3.87,1.08,6.52,2.25,7.84,1.26,1.39,2.94,1.88,9.08,1.17,7.32-.84,10.15-1.42,13.69-11.46.57-1,2.71-.91,3.16.06.16,4.41-1.08,11.46-2,13.87-4.48.34-12.56,1.19-19.45,1.98l-10.93,1.26c-4.04.46-8.15,1.02-14.43,1.92-.73-.43-.96-2.45-.33-2.94l3.89-1.04c3.72-1.02,4.16-1.59,3.28-9.33l-3.57-31.38c-.87-7.65-1.43-8.1-5.3-8.42l-2.15-.18c-.81-.42-.95-2.36-.17-2.96,3.97-.29,8.1-.68,12.14-1.14l17.83-2.05c5.38-.62,10.17-1.25,11.24-1.55.24,1.34,1.51,7.33,2.58,12.91-.23.96-2.15,1.36-3.07.69-1.26-2.84-2.72-5.22-3.95-6.28-1.78-1.41-4.42-2.13-8.54-1.66l-6.73.77c-2.77.32-2.76.49-2.4,3.6l1.67,14.72Zm9.05-39.56c1.23-1.16,2.02-1.68,2.61-1.75.84-.1,1.93.46,3.16,2.28,1.21,1.65,1.35,2.91,1.25,3.52-.09.69-.83,1.72-2.45,2.41l-15.87,7.28c-.7-.17-1.31-1.04-1.16-2l12.46-11.75Z"/><path class="cls-1" d="m452.98,663c-.87-.4-1.57-2.31-.78-2.87,2.76-.83,6.21-2,10.1-3.43,2.62-.96,4.93-1.8,7.7-3.09,1.81,4.93,6.37,8.76,12.61,14.95l9.36,9.29c1.3,1.33,6,5.29,7.84,6.87.33-2.29.7-5.21,1.13-10.69l.85-10.23c.81-9.58,1.25-14.52.49-21.99,3.77-1.02,5.57-1.77,7.96-2.64,2.62-.96,6.25-2.38,9.05-3.59,1.05.16,1.6,1.67,1.26,2.69l-2.16,1.24c-3.06,1.75-4.29,3.28-2.75,7.5,6.01,16.37,9.32,24.9,13.47,34.74,1.5,3.6,2.52,5.39,5.76,4.65l2.66-.61c.87.4,1.54,2.23.86,2.84-3.71,1.18-7.16,2.35-11.06,3.77-3.58,1.31-7.92,2.99-11.68,4.54-1.1-.05-1.85-1.85-1.26-2.7l2.27-1.19c3.48-1.81,3.13-2.77,1.35-7.62l-7.74-20.61-3.33-9.06-.16.06c-1.22,14.87-2.7,30.47-3.02,45.82-.28.46-.75.91-1.39,1.14-.72.26-1.65.42-2.24.28-6.72-8.72-23.73-24.85-31.97-33.56l-.16.06c1.58,5.28,2.78,8.81,4.22,12.97,1.82,5.2,4.65,13.17,6.4,17.94,1.46,3.97,2.34,4.91,5.7,4.23l3.28-.66c.84.32,1.35,2.21.86,2.84-3,.92-6.45,2.09-9.47,3.19-2.54.93-5.54,2.12-8.66,3.44-1.15.06-1.91-2-1.34-2.67l1.34-.76c3.79-2.2,4.09-2.85,2.76-7.95-1.03-4.04-3.33-11.04-5.62-18.77-1.64-5.44-3.84-11.94-5.42-16.23-1.66-4.53-3.85-5.08-7.23-4.48l-1.87.32Z"/><path class="cls-1" d="m564.62,657.02c4.22,6.75,4.97,6.98,8.63,5.49l2.23-.9c.84.07,1.81,1.77,1.5,2.56-3.97,2.28-7.53,4.41-10.9,6.52-3.45,2.16-6.99,4.47-10.77,7.04-.84-.07-1.88-1.72-1.57-2.51l1.79-1.61c2.94-2.64,3.06-3.41-1.16-10.16l-16.53-26.41c-4.22-6.75-4.97-6.98-8.63-5.49l-2.23.9c-.84-.07-1.88-1.72-1.57-2.51,3.97-2.28,7.6-4.45,11.04-6.61,3.37-2.11,6.92-4.43,10.7-6.99.84.07,1.88,1.72,1.57,2.51l-1.79,1.62c-2.94,2.64-3.06,3.41,1.16,10.16l16.53,26.41Z"/><path class="cls-1" d="m584.26,615.35c1.57,1.78,1.74,1.85,3.46.34l4.38-3.87c3.3-2.91,3.67-4.03,1.62-7.64l-1.08-1.87c0-.9,1.58-2.3,2.4-2.01,1.66,2.14,3.62,4.49,5.74,6.9,2.13,2.41,4.21,4.65,6.12,6.57.19.85-1.34,2.32-2.29,2.14l-1.72-1.31c-3.32-2.49-4.53-2.33-7.83.59l-4.38,3.87c-1.71,1.51-1.72,1.63-.04,3.54l6.66,7.56c2.57,2.92,4.62,4.73,6.33,5.14,1.83.42,3.49-.14,8.12-4.23,5.52-4.87,7.51-6.97,4.68-17.23-.11-1.15,1.7-2.29,2.63-1.75,2.66,3.53,5.67,10.02,6.29,12.51-3.48,2.84-9.62,8.16-14.83,12.75l-8.25,7.28c-3.05,2.69-6.1,5.5-10.75,9.83-.84.07-2.19-1.46-1.96-2.22l2.59-3.08c2.46-2.96,2.51-3.68-2.64-9.53l-20.88-23.69c-5.09-5.78-5.81-5.83-9.17-3.88l-1.87,1.08c-.91.12-2.13-1.39-1.83-2.34,3.1-2.51,6.26-5.19,9.31-7.88l13.46-11.88c4.06-3.58,7.62-6.84,8.34-7.7.96.96,5.43,5.14,9.5,9.12.36.92-.99,2.34-2.12,2.33-2.66-1.61-5.22-2.73-6.83-2.89-2.27-.14-4.85.78-7.96,3.52l-5.08,4.48c-2.09,1.85-1.98,1.97.09,4.33l9.79,11.11Z"/></g></g><g><polygon class="cls-7" points="415.08 364.85 477.01 300.78 411 344.1 413.66 364.67 415.08 364.85"/><polygon class="cls-7" points="363.11 364.68 363.28 363.37 304.64 306.77 343.02 367.3 363.11 364.68"/><path class="cls-7" d="m610.32,389.7l-.77-.1-1-.13h0s-13.35-1.7-13.35-1.7l-2.84-.36-41.34-5.26-37.74-4.8-2.91-.37-6.8-.86-2.91-.37-65.33-8.32,35.37-53.87,1.6-2.44,3.73-5.69,1.58-2.41,1.21-1.84-.34.34-1.71-1.71-1.49.98-2.44,1.6-5.7,3.74-2.47,1.62-53.8,35.31-8.1-62.66-.37-2.88-.87-6.72-.37-2.87-10.2-78.88-.37-2.84-1.71-13.26v-.03h0l-.13-1.02-.69.03-1.85,14.34-.37,2.86-10.28,79.46-.37,2.91-.88,6.8-.38,2.95-8.06,62.27-51.14-32.42-2.47-1.57-5.74-3.64-1.22-.77-1.05.97-3.67-3.99,2.25,3.55,1.57,2.47,3.66,5.76,1.58,2.5,32.37,51.04-59.6,7.76-2.92.38-6.79.88-2.91.38-79.14,10.31-2.85.37-14.36,1.87-.73,1.03.73.1,12.88,1.68,1.47.19,2.85.37,79.15,10.31,2.91.38,6.79.88,2.92.38,59.31,7.73-32.65,50.4-1.61,2.49-3.72,5.74-1.59,2.45-3.7,5.71.67.7,5.65-3.66,2.44-1.58,5.71-3.7,2.46-1.59,15.05-9.74,35.44-22.95,7.88,61.91.38,2.95.86,6.8.37,2.91,10.12,79.47.36,2.85,1.83,14.37,1.21,2.14.27-2.12,1.82-14.31.36-2.83,10.04-78.9.36-2.88.86-6.71.37-2.89,7.96-62.54,53.63,35.32,2.46,1.62,5.7,3.75,2.43,1.6,2.05,1.35-.68-.63.55-.6-66.02-43.47,2.63-20.66,1.42-.18,62.06,64.21,1.28-1.39.08.08-.78-1.19-1.4-2.13-.19-.29-3.74-5.68-1.6-2.43-35.41-53.76,65.28-8.31,2.91-.37,6.8-.86,2.91-.37,79.08-10.07,2.84-.36,14.36-1.83.78-.1c0-.15,0-.31-.01-.49Zm-10.02-.32l-208.34-2.32.03-.03h0l21.42-21.43,186.89,23.78Zm-166.03-22.09l-18.03-2.3,60.9-63-42.87,65.3Zm42.73-66.51l-61.93,64.07-1.42-.18-2.66-20.57,66.01-43.32Zm-64.27,64.15l-21.45,21.46-2.32-205.35,23.77,183.89Zm-24.74-185.24l2.35,206.81-26.31-21.61,23.96-185.21Zm-22.29,164.86l-2.28,17.66-57.64-55.63,59.92,37.98Zm-61.07-37.78l58.64,56.61-.17,1.3-20.09,2.62-38.38-60.53Zm58.76,58.82l26.13,21.47-208.79,2.33,182.67-23.79Zm-183.93,24.76l210.21-2.34-26.3,26.29-183.9-23.95Zm163.26,22.22l20.38,2.66.17,1.33-61.88,59.82,41.33-63.81Zm-40.13,63.96l60.83-58.81,2.28,17.94-63.12,40.87Zm85.4,126.62l-23.96-188.18,26.31-26.29-2.35,214.47Zm.97-1.28l2.33-213.05,21.45,26.11-23.78,186.93Zm88.79-123.37l-61.49-63.61,18.07-2.3,43.42,65.91Zm-64.32-64.21l-21.59-26.29,209.81,2.33-188.22,23.96Z"/><polygon class="cls-7" points="477.76 478.5 416.26 414.89 434.33 412.59 477.76 478.5"/><polygon class="cls-7" points="365.71 435.66 302.59 476.53 363.43 417.72 365.71 435.66"/><polygon class="cls-7" points="390.35 386.5 388 179.69 364.04 364.9 390.35 386.5"/><polygon class="cls-7" points="388.96 601.87 412.74 414.94 391.29 388.82 388.96 601.87"/><polygon class="cls-7" points="391.98 387.03 391.99 387.03 391.97 387.06 600.3 389.38 413.41 365.6 391.98 387.03"/><polygon class="cls-7" points="389.67 388 179.47 390.35 363.37 414.3 389.67 388"/></g><path class="cls-7" d="m641.36,389.39c34.5-2.23,36.31-4.05,38.55-38.55,2.23,34.5,4.05,36.31,38.55,38.55-34.5,2.24-36.31,4.05-38.55,38.55-2.23-34.5-4.05-36.31-38.55-38.55Z"/><path class="cls-7" d="m63.55,389.39c34.5-2.23,36.31-4.05,38.55-38.55,2.23,34.5,4.05,36.31,38.55,38.55-34.5,2.24-36.31,4.05-38.55,38.55-2.23-34.5-4.05-36.31-38.55-38.55Z"/><circle class="cls-7" cx="156.58" cy="588.65" r="7.54"/><circle class="cls-7" cx="622.93" cy="591.19" r="7.54"/><g><path class="cls-1" d="m377.01,571.4v-111.82h-113.08l-57.95,111.82h-12.93l184.93-360.8h191.89v10.08h-137.24v147.49h123.21v10.08h-123.21v183.07h150.66v10.08h-206.28Zm0-121.92v-207.86l-108.05,207.86h108.05Z"/><path class="cls-1" d="m567.37,213.1v5.08h-137.24v152.49h123.21v5.08h-123.21v188.07h150.66v5.08h-201.28v-111.82h-117.1l-57.95,111.82h-7.32l182.37-355.8h187.86m-302.53,238.89h114.67v-220.59l-114.67,220.59m307.53-243.89h-195.92l-1.39,2.72-182.37,355.8-3.73,7.28h18.54l1.4-2.7,56.55-109.12h109.06v111.82h211.28v-15.08h-150.66v-178.07h123.21v-15.08h-123.21v-142.49h137.24v-15.08h0Zm-299.29,238.89l101.43-195.13v195.13h-101.43Z"/></g><g><path class="cls-1" d="m332.69,589.63c0,.61.02.66.61.66h1.51c1.14,0,1.4-.15,1.62-1.2l.11-.55c.15-.17.7-.17.81.02-.04.7-.07,1.49-.07,2.32s.02,1.62.07,2.32c-.11.2-.66.22-.81.02l-.11-.55c-.22-1.05-.48-1.23-1.62-1.23h-1.51c-.59,0-.61.02-.61.68v2.61c0,1.01.09,1.71.35,2.08.28.39.7.57,2.3.57,1.9,0,2.65-.07,3.85-2.54.18-.24.72-.15.81.11-.09,1.14-.61,2.91-.92,3.5-1.16-.04-3.26-.07-5.06-.07h-2.85c-1.05,0-2.12.02-3.77.07-.18-.13-.18-.66,0-.77l1.03-.15c.99-.15,1.12-.29,1.12-2.3v-8.17c0-1.99-.13-2.12-1.12-2.32l-.55-.11c-.2-.13-.18-.63.04-.77,1.03.04,2.1.07,3.15.07h4.64c1.4,0,2.65-.02,2.93-.07.02.35.18,1.93.28,3.39-.09.24-.59.28-.81.09-.24-.77-.55-1.42-.83-1.73-.42-.42-1.07-.68-2.15-.68h-1.75c-.72,0-.72.04-.72.85v3.83Z"/><path class="cls-1" d="m347.38,598.74c-2.01,0-3.26-.57-3.72-.83-.42-.48-.7-2.06-.7-3.55.15-.28.66-.31.83-.07.44,1.42,1.91,3.44,3.77,3.44,1.62,0,2.36-1.12,2.36-2.21,0-1.77-1.66-2.83-2.98-3.48-1.58-.79-3.31-2.1-3.31-4.27-.02-2.47,1.9-4.18,5.08-4.18.72,0,1.62.09,2.5.35.28.09.48.13.74.17.18.48.39,1.66.39,3.13-.11.26-.66.29-.85.07-.37-1.12-1.31-2.72-2.89-2.72-1.45,0-2.23.94-2.23,2.04,0,1.01.9,1.93,1.99,2.5l1.44.77c1.36.72,3.09,1.99,3.09,4.4,0,2.69-2.21,4.45-5.52,4.45Z"/><path class="cls-1" d="m361.52,585.58c0-.53,0-.63-.53-.63h-1.36c-1.6,0-2.06.88-2.72,2.47-.26.13-.68.09-.81-.2.46-1.51.57-2.87.72-3.72.09-.07.2-.11.31-.11s.22.02.31.09c.11.37.18.46,1.84.46h8.15c1.45,0,1.77-.02,1.97-.48.09-.04.15-.07.28-.07s.28.09.33.15c-.22.74-.37,2.52-.33,3.77-.11.2-.7.24-.81.07-.37-1.4-.68-2.43-2.32-2.43h-1.31c-.53,0-.59.07-.59.63v9.66c0,2.04.13,2.21,1.12,2.34l.88.11c.15.13.15.64,0,.77-1.42-.04-2.52-.07-3.5-.07-1.05,0-2.19.02-3.72.07-.18-.13-.18-.63,0-.77l.99-.11c.99-.11,1.12-.31,1.12-2.34v-9.66Z"/><path class="cls-1" d="m370.91,596.92c0-1.03.79-1.82,1.77-1.82,1.05,0,1.77.88,1.77,1.82,0,1.01-.72,1.77-1.77,1.77-.88,0-1.77-.7-1.77-1.77Z"/><path class="cls-1" d="m408.41,596.13c1.6,0,1.86-.04,2.5-1.21.15-.15.66-.15.74.13-.2,1.36-.7,2.87-1.07,3.39-.88-.04-1.66-.07-3.07-.07h-3.48c-1.14,0-2.08.02-2.45.07-.2-.04-.26-.28-.22-.48.83-.77,2.08-1.93,3.39-3.37,1.51-1.66,2.87-3.5,2.87-5.85,0-1.51-.92-2.67-2.39-2.67-1.25,0-2.12.81-2.82,2.01-.26.17-.68.04-.72-.31.9-2.21,2.91-3.42,5.04-3.42,2.56,0,4.14,1.66,4.14,3.72,0,1.71-.68,2.93-3.31,5.41l-1.05.99c-.96.9-1.16,1.2-1.16,1.38,0,.13.11.26.42.26h2.65Z"/><path class="cls-1" d="m425.46,591.53c0,3.53-1.51,7.16-5.06,7.16s-5.06-3.63-5.06-7.16,1.51-7.16,5.06-7.16,5.06,3.77,5.06,7.16Zm-5.06,6.15c1.66,0,1.86-4.2,1.86-6.15s-.2-6.15-1.86-6.15-1.86,4.2-1.86,6.15.2,6.15,1.86,6.15Z"/><path class="cls-1" d="m435.99,596.13c1.6,0,1.86-.04,2.5-1.21.15-.15.66-.15.74.13-.2,1.36-.7,2.87-1.07,3.39-.88-.04-1.66-.07-3.07-.07h-3.48c-1.14,0-2.08.02-2.45.07-.2-.04-.26-.28-.22-.48.83-.77,2.08-1.93,3.39-3.37,1.51-1.66,2.87-3.5,2.87-5.85,0-1.51-.92-2.67-2.39-2.67-1.25,0-2.12.81-2.82,2.01-.26.17-.68.04-.72-.31.9-2.21,2.91-3.42,5.04-3.42,2.56,0,4.14,1.66,4.14,3.72,0,1.71-.68,2.93-3.31,5.41l-1.05.99c-.96.9-1.16,1.2-1.16,1.38,0,.13.11.26.42.26h2.65Z"/><path class="cls-1" d="m445.79,586.21c1.69-1.62,4.34-2.87,6.96-3,.24.13.28.5.07.77-2.67.66-3.83,1.55-5.06,3.07-1.16,1.45-1.64,3.55-1.64,5.58,0,2.32.77,5.06,2.41,5.06,1.31,0,1.66-1.44,1.66-2.47,0-1.49-.61-4.16-2.5-4.16-.15-.02-.31,0-.5.02-.13-.09-.18-.24-.15-.39.39-.46,1.42-.96,2.19-.96,2.72,0,3.94,2.04,3.94,4.14,0,2.87-1.97,4.84-5.01,4.84-3.33,0-5.23-2.43-5.23-5.87,0-2.47,1.12-4.93,2.87-6.61Z"/></g></svg>